<?xml version="1.0" encoding="UTF-8" standalone="no"?>
<!DOCTYPE svg PUBLIC "-//W3C//DTD SVG 1.1//EN" "http://www.w3.org/Graphics/SVG/1.1/DTD/svg11.dtd">
<svg xmlns="http://www.w3.org/2000/svg" version="1.1" viewBox="0.00 0.00 800.00 800.00">
<g stroke-width="2.00" fill="none" stroke-linecap="butt">
<path stroke="#225e23" vector-effect="non-scaling-stroke" d="
  M 362.37 204.88
  Q 376.27 215.67 386.08 229.39
  Q 388.11 232.23 389.39 234.92
  Q 389.87 235.95 389.89 234.81
  L 390.09 213.15"
/>
<path stroke="#36772e" vector-effect="non-scaling-stroke" d="
  M 390.09 213.15
  Q 390.08 201.81 390.04 190.75
  C 390.02 185.89 391.92 181.21 397.80 182.04
  C 403.58 182.84 403.14 187.91 403.14 192.25
  Q 403.14 202.51 403.20 212.81"
/>
<path stroke="#225e23" vector-effect="non-scaling-stroke" d="
  M 403.20 212.81
  L 402.73 234.82
  Q 402.69 236.45 403.54 235.05
  C 410.88 222.85 419.51 212.40 431.49 204.95
  Q 431.87 204.72 431.93 204.27
  Q 432.33 201.15 431.95 197.50
  Q 430.96 188.02 429.24 181.14"
/>
<path stroke="#36772e" vector-effect="non-scaling-stroke" d="
  M 429.24 181.14
  Q 427.06 171.05 422.27 162.58"
/>
<path stroke="#7e9187" vector-effect="non-scaling-stroke" d="
  M 422.27 162.58
  Q 413.47 142.47 396.64 128.55
  Q 396.26 128.23 395.88 128.55
  Q 370.33 150.44 363.08 182.91
  Q 360.66 193.74 362.37 204.88"
/>
<path stroke="#b2e19b" vector-effect="non-scaling-stroke" d="
  M 422.27 162.58
  Q 412.19 146.74 398.53 135.24
  A 0.74 0.73 -45.3 0 0 397.57 135.25
  Q 391.01 140.98 385.85 147.86
  Q 374.10 163.52 368.43 181.07"
/>
<path stroke="#9ec890" vector-effect="non-scaling-stroke" d="
  M 368.43 181.07
  C 366.28 185.55 365.57 189.63 364.31 194.12
  Q 363.52 196.92 363.17 199.46
  Q 362.78 202.22 362.37 204.88"
/>
<path stroke="#56ae37" vector-effect="non-scaling-stroke" d="
  M 429.24 181.14
  Q 427.76 182.91 426.56 186.52
  Q 425.44 189.91 421.46 196.50
  Q 414.89 207.35 403.20 212.81"
/>
<path stroke="#56ae37" vector-effect="non-scaling-stroke" d="
  M 390.09 213.15
  Q 378.12 207.40 372.72 196.17
  Q 371.48 193.59 370.34 188.70
  Q 369.49 185.04 368.43 181.07"
/>
<path stroke="#36772e" vector-effect="non-scaling-stroke" d="
  M 276.79 206.98
  Q 275.87 215.74 277.78 223.88"
/>
<path stroke="#225e23" vector-effect="non-scaling-stroke" d="
  M 277.78 223.88
  Q 277.36 225.78 277.79 227.75
  C 279.02 233.45 280.25 239.46 282.26 244.99
  C 289.33 264.48 301.88 282.23 320.67 291.24
  Q 339.13 300.09 359.51 296.13
  A 0.70 0.70 0.0 0 0 360.00 295.11
  L 352.06 280.06"
/>
<path stroke="#36772e" vector-effect="non-scaling-stroke" d="
  M 352.06 280.06
  Q 343.58 267.43 335.68 259.31
  Q 327.48 250.88 318.59 242.64
  C 315.56 239.83 315.17 235.00 318.55 232.43
  Q 322.35 229.54 327.15 233.15
  Q 330.31 235.53 333.11 238.15
  Q 341.61 246.12 349.57 253.87"
/>
<path stroke="#225e23" vector-effect="non-scaling-stroke" d="
  M 349.57 253.87
  Q 359.86 265.62 365.39 274.35
  Q 369.44 280.73 373.81 290.73
  C 375.28 294.09 376.41 298.27 377.98 302.04"
/>
<path stroke="#36772e" vector-effect="non-scaling-stroke" d="
  M 377.98 302.04
  L 380.63 314.27"
/>
<path stroke="#7e9187" vector-effect="non-scaling-stroke" d="
  M 380.63 314.27
  L 381.49 319.00
  Q 381.57 319.48 382.06 319.42
  Q 385.96 318.96 389.12 317.45"
/>
<path stroke="#5b4c2c" vector-effect="non-scaling-stroke" d="
  M 389.12 317.45
  L 404.71 313.00"
/>
<path stroke="#36772e" vector-effect="non-scaling-stroke" d="
  M 404.71 313.00
  L 412.51 311.17
  Q 413.02 311.05 413.13 310.55
  L 414.52 304.26"
/>
<path stroke="#225e23" vector-effect="non-scaling-stroke" d="
  M 414.52 304.26
  Q 415.42 302.32 417.10 296.77
  Q 421.53 282.09 431.73 268.70
  Q 436.59 262.32 441.64 256.06"
/>
<path stroke="#36772e" vector-effect="non-scaling-stroke" d="
  M 441.64 256.06
  Q 452.81 244.26 465.02 233.52
  Q 465.67 232.95 467.47 231.91
  C 472.04 229.27 476.79 232.60 476.71 237.60
  Q 476.66 240.50 474.19 242.68
  C 461.39 253.88 449.92 265.90 440.57 280.35"
/>
<path stroke="#225e23" vector-effect="non-scaling-stroke" d="
  M 440.57 280.35
  Q 437.05 285.78 433.73 292.47
  Q 433.09 293.76 432.81 295.17
  Q 432.66 295.92 433.40 296.06
  Q 449.43 299.08 463.77 294.24
  Q 477.25 289.69 487.85 280.42
  C 504.80 265.61 513.96 242.24 515.51 219.93"
/>
<path stroke="#36772e" vector-effect="non-scaling-stroke" d="
  M 515.51 219.93
  Q 516.43 213.03 515.73 206.02"
/>
<path stroke="#7e9187" vector-effect="non-scaling-stroke" d="
  M 515.73 206.02
  C 515.71 204.69 515.37 203.32 513.91 203.08
  C 497.71 200.39 480.88 200.67 465.26 206.00
  Q 456.32 209.04 453.89 210.12
  Q 425.82 222.59 412.79 251.26
  Q 410.69 255.90 406.18 270.65"
/>
<path stroke="#36772e" vector-effect="non-scaling-stroke" d="
  M 406.18 270.65
  L 403.99 281.89"
/>
<path stroke="#5b4c2c" vector-effect="non-scaling-stroke" d="
  M 403.99 281.89
  Q 402.66 286.81 400.47 288.71
  C 395.90 292.69 391.34 288.76 389.66 284.14"
/>
<path stroke="#36772e" vector-effect="non-scaling-stroke" d="
  M 389.66 284.14
  L 386.16 269.05"
/>
<path stroke="#7e9187" vector-effect="non-scaling-stroke" d="
  M 386.16 269.05
  Q 384.43 263.34 382.87 257.64
  Q 381.92 254.14 376.86 244.41
  Q 371.22 233.57 359.99 223.85
  Q 340.98 207.41 314.67 202.65
  C 306.26 201.13 297.20 201.29 288.47 201.79
  Q 282.50 202.14 277.99 203.28
  Q 276.09 203.77 276.79 206.98"
/>
<path stroke="#b2e19b" vector-effect="non-scaling-stroke" d="
  M 386.16 269.05
  Q 385.68 270.53 384.86 268.16
  Q 384.43 266.89 382.81 266.31
  C 377.43 264.39 374.51 258.31 372.27 253.49
  C 367.53 243.27 358.59 233.49 350.08 227.06
  Q 335.70 216.20 315.15 210.39
  Q 311.04 209.23 306.50 208.73
  Q 290.46 207.00 276.79 206.98"
/>
<path stroke="#8f9c3f" vector-effect="non-scaling-stroke" d="
  M 389.66 284.14
  Q 388.02 285.95 388.39 288.11
  Q 388.91 291.12 388.91 291.21
  Q 389.06 299.07 388.76 306.52"
/>
<path stroke="#b2e19b" vector-effect="non-scaling-stroke" d="
  M 388.76 306.52
  Q 385.41 311.43 380.63 314.27"
/>
<path stroke="#56ae37" vector-effect="non-scaling-stroke" d="
  M 377.98 302.04
  Q 378.07 296.30 378.06 290.75
  Q 378.05 286.51 376.66 278.27
  Q 375.22 269.70 367.06 263.94
  Q 358.90 258.18 349.57 253.87"
/>
<path stroke="#56ae37" vector-effect="non-scaling-stroke" d="
  M 352.06 280.06
  Q 343.65 281.19 335.88 279.29
  Q 330.49 277.97 326.35 275.67
  C 320.80 272.58 319.05 267.66 316.20 262.31
  Q 315.35 260.72 313.69 259.62
  C 309.91 257.12 305.23 255.15 302.74 253.36
  Q 289.93 244.18 282.02 230.76
  Q 279.14 225.86 277.78 223.88"
/>
<path stroke="#d7b699" vector-effect="non-scaling-stroke" d="
  M 389.12 317.45
  L 388.76 306.52"
/>
<path stroke="#56ae37" vector-effect="non-scaling-stroke" d="
  M 515.51 219.93
  Q 515.03 221.00 514.57 221.77
  Q 513.93 222.84 513.65 223.59
  Q 510.27 232.80 504.60 239.91
  Q 496.01 250.69 481.89 257.93
  C 478.28 259.78 475.77 262.68 474.42 266.56
  C 473.12 270.33 471.02 273.22 467.49 275.11
  Q 460.62 278.79 452.75 280.04
  Q 449.47 280.56 440.57 280.35"
/>
<path stroke="#56ae37" vector-effect="non-scaling-stroke" d="
  M 441.64 256.06
  Q 441.45 255.31 440.81 255.13
  Q 440.38 255.01 439.97 255.20
  C 431.04 259.56 421.84 265.16 417.91 274.48
  C 416.53 277.75 415.58 282.19 415.21 285.73
  Q 414.27 294.92 414.52 304.26"
/>
<path stroke="#8f9c3f" vector-effect="non-scaling-stroke" d="
  M 404.71 313.00
  Q 404.99 304.15 404.91 295.03
  Q 404.89 293.11 404.29 288.50
  Q 403.88 285.35 403.99 281.89"
/>
<path stroke="#b2e19b" vector-effect="non-scaling-stroke" d="
  M 515.73 206.02
  Q 508.56 206.97 506.25 207.05
  Q 492.25 207.54 481.84 209.68
  Q 471.35 211.83 460.09 216.95
  C 441.95 225.20 426.38 240.15 418.88 258.20
  C 417.38 261.81 415.42 264.19 411.88 265.84
  Q 410.26 266.60 408.86 267.99
  Q 407.60 269.23 406.18 270.65"
/>
<path stroke="#7e9187" vector-effect="non-scaling-stroke" d="
  M 468.78 319.59
  Q 466.27 323.48 464.01 328.55
  C 462.20 332.60 454.37 334.43 450.72 332.17
  Q 438.39 324.50 425.30 325.36
  Q 418.31 325.81 408.20 328.39
  Q 407.26 328.63 405.76 329.54"
/>
<path stroke="#3c331a" vector-effect="non-scaling-stroke" d="
  M 179.81 429.42
  Q 187.69 437.43 197.32 438.98
  C 204.30 440.11 211.60 437.50 218.48 434.92
  Q 262.14 418.52 305.77 402.05
  Q 342.59 388.14 379.24 373.48
  Q 384.57 371.35 387.94 369.16
  C 391.28 367.01 392.74 362.82 396.14 360.59
  Q 399.14 358.62 403.69 356.69
  Q 410.46 353.83 417.18 351.14
  Q 424.68 348.15 429.02 347.56
  C 437.04 346.48 445.99 347.95 452.50 353.16
  C 459.95 359.12 467.31 366.37 475.49 371.17
  C 493.63 381.80 514.27 383.57 534.30 377.40
  C 555.91 370.74 576.68 358.01 590.60 339.78
  Q 598.60 329.32 600.86 319.32
  Q 602.72 311.07 598.99 302.95"
/>
<path stroke="#7e9187" vector-effect="non-scaling-stroke" d="
  M 598.99 302.95
  Q 596.78 295.97 589.80 291.84"
/>
<path stroke="#b89e87" vector-effect="non-scaling-stroke" d="
  M 598.99 302.95
  Q 597.67 309.65 593.67 316.23
  Q 587.77 325.92 580.79 332.79
  Q 572.84 340.61 565.36 346.43
  Q 554.11 355.17 538.26 361.92
  Q 524.68 367.70 511.27 368.72
  Q 485.07 370.71 466.32 353.05
  C 461.86 348.86 456.55 343.87 452.44 341.57
  Q 434.23 331.38 413.79 337.36"
/>
<path stroke="#b89e87" vector-effect="non-scaling-stroke" d="
  M 462.46 340.44
  C 468.29 347.50 475.06 353.29 483.45 357.08
  Q 488.32 359.28 495.14 360.30
  C 506.91 362.06 518.75 360.08 530.13 356.45
  C 536.67 354.37 543.21 351.39 549.33 348.35
  Q 562.78 341.67 580.99 326.25
  Q 587.94 320.36 591.37 315.09"
/>
<path stroke="#d7b699" vector-effect="non-scaling-stroke" d="
  M 589.02 293.39
  Q 595.05 296.57 596.58 298.94
  Q 598.06 301.23 597.63 303.51
  Q 596.26 310.80 591.37 315.09"
/>
<path stroke="#94592c" vector-effect="non-scaling-stroke" d="
  M 591.37 315.09
  Q 582.25 321.31 573.45 326.92
  Q 568.58 330.03 564.01 332.25
  C 557.93 335.21 551.54 338.52 544.85 340.86
  Q 540.51 342.38 535.24 344.25
  Q 520.86 349.36 504.30 349.95
  Q 480.63 350.79 463.42 339.89
  A 0.66 0.66 0.0 0 0 462.81 339.83
  Q 462.17 340.10 462.46 340.44"
/>
<path stroke="#d7b699" vector-effect="non-scaling-stroke" d="
  M 462.46 340.44
  L 460.04 337.75
  A 0.40 0.40 0.0 0 1 460.28 337.09
  Q 461.64 336.88 462.92 336.09
  Q 470.07 331.67 475.36 325.02"
/>
<path stroke="#94592c" vector-effect="non-scaling-stroke" d="
  M 183.27 420.95
  Q 191.50 427.12 200.72 425.36
  Q 205.33 424.48 214.79 420.98
  Q 277.76 397.60 326.02 379.49
  Q 338.47 374.82 353.16 368.87
  C 361.67 365.42 369.56 358.45 378.43 353.78
  Q 390.06 347.66 402.34 341.67"
/>
<path stroke="#5b4c2c" vector-effect="non-scaling-stroke" d="
  M 403.56 373.07
  L 389.11 379.51"
/>
<path stroke="#7e9187" vector-effect="non-scaling-stroke" d="
  M 389.11 379.51
  L 381.70 383.10
  Q 381.27 383.31 381.26 383.79
  Q 381.13 391.93 380.91 400.49
  C 380.47 417.78 366.81 430.34 352.38 437.47
  Q 343.66 441.79 333.56 442.12
  Q 325.20 442.39 318.98 445.64
  C 314.50 447.97 310.03 452.84 314.07 458.04
  C 315.99 460.52 319.04 460.06 321.06 457.88"
/>
<path stroke="#5b4c2c" vector-effect="non-scaling-stroke" d="
  M 321.06 457.88
  Q 323.70 457.21 326.50 457.06
  C 334.75 456.61 343.40 456.37 351.25 453.58
  Q 362.69 449.51 373.24 442.96
  A 0.20 0.20 0.0 0 1 373.55 443.13
  C 373.61 448.67 371.71 462.39 365.02 463.19
  Q 364.58 463.24 364.34 462.86
  Q 364.21 462.66 364.05 462.54"
/>
<path stroke="#7e9187" vector-effect="non-scaling-stroke" d="
  M 364.05 462.54
  Q 363.79 461.85 363.00 461.99
  Q 355.02 463.41 348.94 469.59"
/>
<path stroke="#5b4c2c" vector-effect="non-scaling-stroke" d="
  M 348.94 469.59
  Q 343.37 472.48 338.30 478.30
  Q 327.91 490.23 329.05 505.66"
/>
<path stroke="#7e9187" vector-effect="non-scaling-stroke" d="
  M 329.05 505.66
  C 323.18 510.02 316.14 515.26 313.23 522.81"
/>
<path stroke="#5b4c2c" vector-effect="non-scaling-stroke" d="
  M 313.23 522.81
  Q 313.42 526.57 316.48 528.09
  A 1.06 1.05 37.4 0 0 317.65 527.94
  L 329.00 517.81
  A 0.45 0.45 0.0 0 1 329.71 517.97
  C 331.42 521.81 334.50 527.87 338.05 529.82
  Q 340.26 531.03 343.52 529.37
  Q 344.03 529.11 344.11 528.55
  Q 344.45 526.35 343.42 524.45
  C 336.63 511.93 337.02 497.29 346.09 486.42
  C 350.75 480.83 359.64 475.44 366.82 473.11
  A 1.18 1.17 -17.5 0 1 368.31 473.88
  Q 369.41 477.41 368.10 480.24
  Q 366.26 484.24 362.64 489.23
  Q 356.47 497.70 355.54 508.76
  C 354.62 519.76 359.99 529.71 367.23 537.79
  C 373.37 544.64 379.37 550.92 382.62 559.64
  C 384.00 563.35 383.76 567.13 383.97 570.99
  Q 384.15 574.35 387.16 575.87
  C 389.48 577.05 391.97 574.90 392.59 572.81
  C 394.68 565.71 391.98 555.15 388.82 549.41
  Q 385.13 542.72 379.23 536.31
  C 376.04 532.84 372.89 529.03 370.29 525.21
  Q 367.10 520.52 366.94 514.80
  Q 366.88 512.80 368.50 513.98
  Q 372.80 517.12 376.67 519.67
  Q 379.40 521.48 381.49 523.39
  C 383.89 525.59 387.36 530.04 390.60 526.19
  Q 392.08 524.42 389.52 519.93
  A 4.49 4.43 -81.5 0 0 388.84 519.00
  Q 382.33 511.99 373.83 506.52
  C 371.26 504.87 368.39 502.15 368.20 498.92
  C 367.87 493.04 369.81 488.95 373.98 485.08
  C 381.07 478.49 385.76 472.22 387.48 462.10
  Q 388.24 457.62 391.84 453.80
  C 394.48 451.00 398.75 450.80 401.64 453.23
  C 405.51 456.48 406.49 461.16 407.53 465.83
  C 408.79 471.52 412.31 477.18 415.99 481.31
  C 418.62 484.27 421.82 486.48 423.71 490.10
  Q 426.12 494.73 426.10 500.09"
/>
<path stroke="#7e9187" vector-effect="non-scaling-stroke" d="
  M 426.10 500.09
  C 424.95 503.02 420.80 506.45 418.39 508.83"
/>
<path stroke="#5b4c2c" vector-effect="non-scaling-stroke" d="
  M 418.39 508.83
  Q 413.56 511.66 410.24 516.01
  C 408.38 518.44 409.68 521.00 411.94 522.40
  Q 413.13 523.13 414.47 522.22
  Q 421.19 517.68 427.05 513.19
  A 0.41 0.41 0.0 0 1 427.71 513.52
  Q 427.68 521.17 422.08 526.67
  C 416.49 532.15 410.43 537.29 405.59 543.57
  C 403.21 546.65 400.71 552.15 403.09 555.73
  C 405.20 558.88 408.49 556.85 409.81 554.20
  C 415.43 542.90 427.19 537.61 433.65 527.09
  C 441.56 514.19 437.44 497.00 428.61 485.02
  C 426.53 482.21 425.44 478.83 425.73 475.26
  Q 425.85 473.72 427.39 473.82
  Q 428.32 473.88 429.19 474.23
  C 442.41 479.57 454.30 490.25 454.99 505.54
  C 455.32 512.75 453.47 518.19 449.99 524.07
  C 449.03 525.68 448.34 528.30 450.23 529.56
  C 456.25 533.58 462.20 520.92 463.33 516.99
  A 0.74 0.74 0.0 0 1 464.53 516.65
  Q 469.31 520.93 473.35 525.95
  Q 475.57 528.71 477.80 525.96
  L 478.12 525.56
  Q 480.29 522.88 478.48 519.93
  Q 473.65 512.09 466.18 506.63
  A 2.64 2.62 -73.4 0 1 465.11 504.63
  C 464.96 501.44 464.82 498.25 463.91 495.16
  Q 459.70 480.73 447.60 472.20"
/>
<path stroke="#7e9187" vector-effect="non-scaling-stroke" d="
  M 447.60 472.20
  Q 440.71 463.68 430.15 462.36"
/>
<path stroke="#5b4c2c" vector-effect="non-scaling-stroke" d="
  M 430.15 462.36
  Q 429.65 463.85 427.78 463.19
  Q 427.09 462.94 426.05 461.69
  C 422.92 457.89 421.66 450.12 421.44 445.06
  A 0.28 0.28 0.0 0 1 421.85 444.80
  C 429.99 449.16 438.62 453.29 447.71 455.27
  Q 450.81 455.95 459.87 456.71
  Q 467.05 457.31 474.23 458.49"
/>
<path stroke="#7e9187" vector-effect="non-scaling-stroke" d="
  M 474.23 458.49
  Q 475.49 460.49 478.02 459.47
  Q 481.56 458.04 481.34 453.98
  C 481.00 447.87 473.71 444.47 468.47 443.09
  Q 465.58 442.33 460.84 442.14
  Q 453.65 441.86 451.01 441.21
  Q 432.99 436.81 421.30 423.31"
/>
<path stroke="#3c331a" vector-effect="non-scaling-stroke" d="
  M 421.30 423.31
  Q 416.84 417.37 414.87 410.64
  Q 413.28 405.24 413.45 396.78
  Q 413.70 384.18 413.42 373.02
  Q 413.38 371.47 413.23 369.96
  A 0.54 0.54 0.0 0 0 412.49 369.51
  L 403.56 373.07"
/>
<path stroke="#b89e87" vector-effect="non-scaling-stroke" d="
  M 421.30 423.31
  Q 422.50 431.66 429.24 437.72"
/>
<path stroke="#94592c" vector-effect="non-scaling-stroke" d="
  M 429.24 437.72
  Q 411.95 435.68 405.94 418.77
  Q 404.88 415.78 404.32 411.24
  Q 403.26 402.67 403.11 397.52"
/>
<path stroke="#b89e87" vector-effect="non-scaling-stroke" d="
  M 403.11 397.52
  Q 403.66 396.48 403.64 394.90"
/>
<path stroke="#94592c" vector-effect="non-scaling-stroke" d="
  M 403.64 394.90
  L 403.56 373.07"
/>
<path stroke="#d7b699" vector-effect="non-scaling-stroke" d="
  M 429.24 437.72
  Q 439.11 444.15 450.79 447.19
  Q 454.47 448.15 458.27 448.36
  C 462.93 448.62 470.15 448.86 472.45 453.27
  Q 473.01 454.32 474.23 458.49"
/>
<path stroke="#d7b699" vector-effect="non-scaling-stroke" d="
  M 430.15 462.36
  Q 438.75 468.18 447.60 472.20"
/>
<path stroke="#d7b699" vector-effect="non-scaling-stroke" d="
  M 418.39 508.83
  L 425.57 505.60
  Q 426.04 505.39 426.22 504.91
  Q 427.32 502.06 426.10 500.09"
/>
<path stroke="#d7b699" vector-effect="non-scaling-stroke" d="
  M 313.23 522.81
  Q 317.92 521.41 321.84 518.81
  Q 324.21 517.23 326.30 513.78
  Q 329.19 509.01 329.05 505.66"
/>
<path stroke="#d7b699" vector-effect="non-scaling-stroke" d="
  M 348.94 469.59
  L 363.91 462.95
  Q 364.00 462.91 364.03 462.81
  Q 364.06 462.68 364.05 462.54"
/>
<path stroke="#d7b699" vector-effect="non-scaling-stroke" d="
  M 403.11 397.52
  Q 398.03 402.80 391.09 402.17
  Q 390.59 402.13 390.17 401.86
  Q 389.78 401.60 389.39 401.72
  Q 388.96 401.85 388.95 402.30
  Q 388.67 410.00 386.53 414.98
  Q 380.90 428.08 368.72 435.76
  C 359.21 441.75 349.12 446.93 337.63 448.24
  Q 332.61 448.82 328.01 449.48
  Q 320.38 450.58 321.06 457.88"
/>
<path stroke="#d7b699" vector-effect="non-scaling-stroke" d="
  M 403.64 394.90
  Q 399.89 396.50 397.51 396.93
  C 395.65 397.27 389.44 396.54 389.14 393.86
  Q 388.43 387.46 389.11 379.51"
/>
<path stroke="#5b4c2c" vector-effect="non-scaling-stroke" d="
  M 267.87 449.67
  Q 259.80 459.81 246.01 463.47
  Q 243.48 464.14 242.84 466.90
  C 242.02 470.35 245.98 472.04 248.76 471.55
  Q 262.20 469.15 271.66 459.51
  Q 275.27 455.84 278.57 451.62
  C 286.72 441.19 297.19 438.42 309.83 437.47
  C 315.09 437.08 318.20 434.70 322.09 431.55
  C 327.12 427.48 333.88 427.41 339.88 425.97
  Q 351.64 423.14 360.65 415.18
  Q 366.82 409.73 367.70 401.23"
/>
<path stroke="#7e9187" vector-effect="non-scaling-stroke" d="
  M 367.70 401.23
  Q 368.07 397.71 364.73 396.77
  C 363.24 396.35 362.13 397.04 361.32 398.20
  C 360.12 399.94 359.05 401.71 357.44 403.13
  Q 351.24 408.59 342.25 411.53
  Q 341.13 411.89 332.88 412.92
  Q 321.35 414.36 312.22 421.99
  C 310.77 423.21 308.37 423.93 306.51 423.97
  C 295.27 424.19 283.61 427.46 276.58 435.83
  Q 272.41 440.81 267.87 449.67"
/>
<path stroke="#d7b699" vector-effect="non-scaling-stroke" d="
  M 367.70 401.23
  Q 361.30 408.75 356.86 411.62
  C 350.96 415.45 340.83 418.08 332.91 419.37
  C 325.77 420.52 319.70 423.31 314.17 427.75
  C 313.21 428.53 312.07 428.94 310.88 429.15
  Q 305.52 430.09 299.86 430.83
  Q 290.88 432.00 283.17 437.24
  Q 280.67 438.94 275.55 443.49
  Q 271.91 446.73 267.87 449.67"
/>
<path stroke="#5b4c2c" vector-effect="non-scaling-stroke" d="
  M 426.86 405.76
  Q 432.77 419.22 446.92 423.37
  Q 453.57 425.33 463.35 426.20
  C 465.88 426.42 468.47 426.97 470.42 428.67
  C 475.07 432.71 479.09 436.76 485.36 438.23
  Q 491.12 439.58 497.12 441.01
  Q 502.52 442.30 506.77 445.73
  C 510.57 448.80 513.25 453.97 516.59 457.77
  Q 527.56 470.27 543.29 471.61
  C 545.44 471.79 548.62 471.34 549.37 468.90
  C 550.33 465.77 548.52 463.74 545.57 463.17
  C 536.31 461.41 527.69 457.83 522.49 449.40
  C 519.16 444.00 515.78 439.66 510.27 436.00
  C 506.30 433.35 501.57 432.77 497.00 432.66
  Q 495.12 432.61 493.62 431.43
  Q 490.44 428.94 486.79 427.66
  C 486.03 427.40 484.78 426.56 484.24 425.97
  Q 481.39 422.78 478.38 419.88
  Q 475.25 416.87 471.37 415.85"
/>
<path stroke="#7e9187" vector-effect="non-scaling-stroke" d="
  M 471.37 415.85
  C 465.21 412.87 459.40 412.69 452.60 412.50
  Q 448.66 412.39 446.55 411.70
  Q 441.34 409.99 437.10 405.77"
/>
<path stroke="#5b4c2c" vector-effect="non-scaling-stroke" d="
  M 437.10 405.77
  L 432.88 399.72"
/>
<path stroke="#7e9187" vector-effect="non-scaling-stroke" d="
  M 432.88 399.72
  Q 431.66 398.04 430.49 397.79
  C 425.75 396.78 425.84 402.43 426.86 405.76"
/>
<path stroke="#d7b699" vector-effect="non-scaling-stroke" d="
  M 432.88 399.72
  Q 428.85 402.14 426.86 405.76"
/>
<path stroke="#d7b699" vector-effect="non-scaling-stroke" d="
  M 437.10 405.77
  Q 440.30 410.82 443.98 412.27
  Q 449.71 414.54 453.00 414.98
  Q 460.25 415.94 467.49 417.00
  Q 470.26 417.40 471.37 415.85"
/>
<path stroke="#5b4c2c" vector-effect="non-scaling-stroke" d="
  M 499.05 432.34
  C 503.47 431.59 509.02 431.36 513.41 432.28
  Q 525.57 434.85 538.26 436.16
  Q 543.42 436.69 547.71 436.38
  C 554.05 435.93 552.16 427.85 546.63 427.60
  Q 541.26 427.36 536.28 426.72
  C 521.72 424.84 504.29 418.06 491.15 426.90
  A 0.81 0.80 -40.6 0 0 491.05 428.16
  C 493.34 430.29 495.52 432.94 499.05 432.34"
/>
<path stroke="#5b4c2c" vector-effect="non-scaling-stroke" d="
  M 257.48 500.28
  C 257.53 503.96 259.74 506.63 263.51 505.37
  C 268.39 503.73 272.95 500.63 276.39 496.90
  C 280.41 492.54 283.21 485.25 285.88 479.22
  C 289.14 471.86 295.51 468.98 302.10 465.34
  Q 307.16 462.55 305.12 457.19
  Q 304.38 455.23 301.08 454.40"
/>
<path stroke="#7e9187" vector-effect="non-scaling-stroke" d="
  M 301.08 454.40
  Q 283.29 456.21 275.12 473.33
  Q 273.14 477.47 270.99 481.99
  Q 268.75 486.68 266.34 489.61
  Q 263.59 492.96 260.17 496.17
  Q 258.29 497.93 257.48 500.28"
/>
<path stroke="#d7b699" vector-effect="non-scaling-stroke" d="
  M 301.08 454.40
  Q 302.65 455.64 302.79 456.26
  Q 303.23 458.18 301.61 459.19
  C 298.56 461.07 295.18 461.89 292.11 463.73
  Q 286.05 467.38 282.28 474.03
  C 278.68 480.39 276.17 488.60 270.15 493.15
  Q 265.63 496.58 257.48 500.28"
/>
<path stroke="#3c331a" vector-effect="non-scaling-stroke" d="
  M 490.44 456.53
  Q 488.13 457.16 487.63 459.36
  C 486.99 462.12 489.80 464.45 491.94 465.74
  Q 496.02 468.21 499.34 470.68
  C 504.27 474.37 506.85 480.59 508.89 486.34
  C 511.57 493.90 516.24 500.54 522.97 504.75
  C 528.10 507.97 533.38 503.48 529.03 498.46
  C 526.57 495.62 523.87 493.23 521.94 489.90
  Q 518.04 483.18 515.57 476.30"
/>
<path stroke="#7e9187" vector-effect="non-scaling-stroke" d="
  M 515.57 476.30
  Q 512.70 469.49 508.58 464.42
  C 505.70 460.87 495.32 451.08 490.44 456.53"
/>
<path stroke="#b89e87" vector-effect="non-scaling-stroke" d="
  M 515.57 476.30
  Q 508.15 465.83 497.27 461.72
  Q 492.52 459.92 490.44 456.53"
/>
<path stroke="#5b4c2c" vector-effect="non-scaling-stroke" d="
  M 396.66 490.58
  L 406.96 502.38
  A 2.28 2.27 -33.4 0 0 409.67 502.93
  C 414.85 500.41 412.15 495.38 409.55 492.32
  Q 406.04 488.20 402.60 484.08
  C 398.37 479.03 402.18 471.50 397.60 467.54
  A 1.59 1.59 0.0 0 0 395.45 467.59
  C 393.60 469.35 393.50 475.37 393.37 478.00
  C 393.28 479.76 392.76 481.53 391.57 482.86
  Q 387.67 487.20 383.79 491.88
  Q 381.35 494.81 380.55 497.80
  C 379.57 501.41 383.71 505.43 386.84 501.34
  Q 391.39 495.38 395.85 490.57
  Q 396.26 490.12 396.66 490.58"
/>
<path stroke="#5b4c2c" vector-effect="non-scaling-stroke" d="
  M 295.89 506.51
  Q 295.72 509.02 295.69 511.50
  Q 295.56 522.25 295.43 532.99
  Q 295.38 536.66 298.16 538.50
  C 300.18 539.84 302.92 538.63 303.86 536.67
  Q 304.64 535.04 304.59 532.83
  Q 304.36 522.03 304.79 513.67
  Q 305.12 507.38 308.06 500.07
  Q 313.05 487.68 324.77 483.41
  C 329.61 481.64 333.25 477.02 336.33 473.11
  Q 336.68 472.67 336.53 472.13
  L 336.27 471.18"
/>
<path stroke="#7e9187" vector-effect="non-scaling-stroke" d="
  M 336.27 471.18
  L 337.90 469.97
  Q 339.24 468.98 337.58 468.90
  Q 325.44 468.33 314.67 475.21
  Q 297.77 486.00 295.89 506.51"
/>
<path stroke="#d7b699" vector-effect="non-scaling-stroke" d="
  M 336.27 471.18
  Q 332.05 473.80 327.49 475.79
  Q 320.19 478.96 318.56 480.03
  Q 311.45 484.68 307.33 492.21
  C 304.82 496.81 303.69 501.89 302.26 506.90
  A 1.58 1.55 -87.1 0 1 301.06 508.00
  Q 298.60 508.49 295.89 506.51"
/>
<path stroke="#5b4c2c" vector-effect="non-scaling-stroke" d="
  M 457.77 470.78
  Q 457.65 471.35 456.84 471.24
  A 0.72 0.72 0.0 0 0 456.14 472.33
  Q 459.20 477.23 463.65 480.96
  C 466.33 483.20 469.65 484.02 472.74 485.53
  C 484.82 491.44 488.16 504.25 488.15 516.49
  Q 488.14 526.16 488.47 534.15
  Q 488.63 538.11 492.88 538.20
  Q 492.97 538.20 493.05 538.20
  Q 497.30 537.80 497.44 533.75
  Q 497.94 519.72 497.48 506.99
  Q 497.25 500.50 493.12 492.70"
/>
<path stroke="#7e9187" vector-effect="non-scaling-stroke" d="
  M 493.12 492.70
  Q 486.15 474.99 467.82 470.18
  Q 462.06 468.67 455.39 469.63
  Q 455.36 469.64 455.36 469.67
  L 455.40 469.92
  Q 455.45 470.17 455.69 470.14
  Q 456.87 469.99 457.77 470.78"
/>
<path stroke="#d7b699" vector-effect="non-scaling-stroke" d="
  M 493.12 492.70
  Q 486.16 483.65 476.24 479.05
  Q 473.22 477.65 468.24 476.04
  Q 462.85 474.29 457.77 470.78"
/>
<path stroke="#5b4c2c" vector-effect="non-scaling-stroke" d="
  M 340.94 547.74
  A 0.45 0.45 0.0 0 1 341.66 547.54
  C 346.33 551.43 350.60 557.06 350.96 563.30
  C 351.15 566.51 351.62 571.19 355.91 571.09
  C 358.41 571.03 359.90 568.75 359.96 566.41
  C 360.17 558.77 358.83 552.77 353.68 547.01
  Q 346.94 539.48 338.93 534.16
  Q 337.78 533.40 337.09 534.58
  Q 335.63 537.07 334.89 539.69
  Q 333.32 545.27 332.08 550.62
  C 331.38 553.59 334.00 557.41 337.10 555.16
  C 339.14 553.69 340.20 550.08 340.94 547.74"
/>
<path stroke="#5b4c2c" vector-effect="non-scaling-stroke" d="
  M 452.54 547.55
  Q 453.61 550.81 455.16 553.95
  Q 456.72 557.11 459.48 555.22
  Q 459.60 555.14 459.73 555.06
  Q 462.53 553.35 461.67 550.18
  Q 460.31 545.21 459.14 540.30
  C 458.53 537.75 456.87 532.60 453.19 535.02
  Q 446.90 539.14 441.58 544.39
  Q 431.85 553.99 433.32 567.39
  Q 433.68 570.63 436.50 571.25
  C 441.26 572.30 441.79 565.41 442.11 562.50
  C 442.77 556.53 447.18 550.79 451.92 547.35
  A 0.41 0.40 -26.8 0 1 452.54 547.55"
/>
</g>
<path fill="#02261a" d="
  M 449.51 195.21
  Q 450.04 195.31 451.23 194.94
  Q 457.07 193.13 462.51 191.47
  C 471.50 188.74 480.38 187.09 489.86 186.98
  C 502.62 186.84 514.57 187.15 526.59 190.55
  Q 529.62 191.40 530.19 194.67
  Q 530.95 198.93 531.52 203.60
  Q 532.06 207.95 531.40 224.42
  C 531.37 225.30 530.92 226.18 530.88 227.12
  Q 530.62 232.36 529.52 237.29
  Q 526.75 249.70 522.32 259.54
  Q 520.45 263.69 519.03 267.67
  C 518.43 269.36 519.70 270.94 521.52 270.55
  Q 533.38 267.99 543.16 267.60
  C 552.37 267.23 562.48 266.90 571.46 268.39
  C 590.46 271.54 608.79 280.90 615.70 300.26
  C 619.48 310.83 618.02 322.81 613.44 333.00
  C 605.68 350.23 592.54 362.18 577.52 373.71
  A 3.58 3.57 67.6 0 0 576.14 377.04
  Q 577.62 388.09 578.40 399.68
  Q 580.99 438.40 565.10 476.32
  Q 557.42 494.66 550.12 506.11
  C 545.46 513.43 540.65 520.85 534.87 527.66
  Q 522.02 542.79 511.85 551.26
  Q 482.08 576.04 445.99 586.72
  Q 438.43 588.95 426.60 591.39
  C 411.53 594.48 395.64 595.01 380.95 593.89
  Q 374.94 593.43 368.11 592.01
  C 362.36 590.80 356.74 589.89 351.02 588.25
  Q 338.93 584.79 334.77 583.15
  Q 306.73 572.12 285.05 555.46
  Q 271.56 545.10 256.20 527.61
  Q 250.00 520.56 243.79 511.20
  C 232.74 494.52 223.12 474.87 217.94 455.04
  A 2.18 2.17 80.6 0 0 215.68 453.42
  C 211.21 453.72 206.86 453.70 202.41 454.05
  C 188.11 455.20 174.11 447.11 166.61 435.41
  Q 156.84 420.16 161.87 402.98
  C 165.57 390.37 176.40 379.20 188.74 374.64
  Q 198.48 371.04 212.42 368.08
  C 214.32 367.67 215.85 366.36 216.28 364.39
  Q 225.06 324.74 248.56 294.46
  Q 257.16 283.39 272.45 268.55
  C 273.94 267.10 273.32 264.86 272.61 263.19
  Q 266.48 248.80 264.07 238.26
  Q 262.27 230.38 261.47 219.87
  Q 260.49 207.01 263.23 193.33
  Q 263.67 191.16 265.83 190.50
  C 270.55 189.05 275.44 187.93 280.41 187.66
  C 291.92 187.04 303.87 186.67 315.35 187.74
  C 324.19 188.56 333.40 191.99 341.74 195.18
  C 344.11 196.08 346.00 194.51 346.30 192.17
  C 347.85 179.72 350.51 167.62 356.00 156.37
  Q 368.60 130.58 390.96 113.22
  Q 396.35 109.04 402.29 113.36
  Q 430.45 133.85 442.50 168.16
  C 445.36 176.29 446.85 185.31 448.13 193.76
  A 1.74 1.74 0.0 0 0 449.51 195.21
  Z
  M 362.37 204.88
  Q 376.27 215.67 386.08 229.39
  Q 388.11 232.23 389.39 234.92
  Q 389.87 235.95 389.89 234.81
  L 390.09 213.15
  Q 390.08 201.81 390.04 190.75
  C 390.02 185.89 391.92 181.21 397.80 182.04
  C 403.58 182.84 403.14 187.91 403.14 192.25
  Q 403.14 202.51 403.20 212.81
  L 402.73 234.82
  Q 402.69 236.45 403.54 235.05
  C 410.88 222.85 419.51 212.40 431.49 204.95
  Q 431.87 204.72 431.93 204.27
  Q 432.33 201.15 431.95 197.50
  Q 430.96 188.02 429.24 181.14
  Q 427.06 171.05 422.27 162.58
  Q 413.47 142.47 396.64 128.55
  Q 396.26 128.23 395.88 128.55
  Q 370.33 150.44 363.08 182.91
  Q 360.66 193.74 362.37 204.88
  Z
  M 276.79 206.98
  Q 275.87 215.74 277.78 223.88
  Q 277.36 225.78 277.79 227.75
  C 279.02 233.45 280.25 239.46 282.26 244.99
  C 289.33 264.48 301.88 282.23 320.67 291.24
  Q 339.13 300.09 359.51 296.13
  A 0.70 0.70 0.0 0 0 360.00 295.11
  L 352.06 280.06
  Q 343.58 267.43 335.68 259.31
  Q 327.48 250.88 318.59 242.64
  C 315.56 239.83 315.17 235.00 318.55 232.43
  Q 322.35 229.54 327.15 233.15
  Q 330.31 235.53 333.11 238.15
  Q 341.61 246.12 349.57 253.87
  Q 359.86 265.62 365.39 274.35
  Q 369.44 280.73 373.81 290.73
  C 375.28 294.09 376.41 298.27 377.98 302.04
  L 380.63 314.27
  L 381.49 319.00
  Q 381.57 319.48 382.06 319.42
  Q 385.96 318.96 389.12 317.45
  L 404.71 313.00
  L 412.51 311.17
  Q 413.02 311.05 413.13 310.55
  L 414.52 304.26
  Q 415.42 302.32 417.10 296.77
  Q 421.53 282.09 431.73 268.70
  Q 436.59 262.32 441.64 256.06
  Q 452.81 244.26 465.02 233.52
  Q 465.67 232.95 467.47 231.91
  C 472.04 229.27 476.79 232.60 476.71 237.60
  Q 476.66 240.50 474.19 242.68
  C 461.39 253.88 449.92 265.90 440.57 280.35
  Q 437.05 285.78 433.73 292.47
  Q 433.09 293.76 432.81 295.17
  Q 432.66 295.92 433.40 296.06
  Q 449.43 299.08 463.77 294.24
  Q 477.25 289.69 487.85 280.42
  C 504.80 265.61 513.96 242.24 515.51 219.93
  Q 516.43 213.03 515.73 206.02
  C 515.71 204.69 515.37 203.32 513.91 203.08
  C 497.71 200.39 480.88 200.67 465.26 206.00
  Q 456.32 209.04 453.89 210.12
  Q 425.82 222.59 412.79 251.26
  Q 410.69 255.90 406.18 270.65
  L 403.99 281.89
  Q 402.66 286.81 400.47 288.71
  C 395.90 292.69 391.34 288.76 389.66 284.14
  L 386.16 269.05
  Q 384.43 263.34 382.87 257.64
  Q 381.92 254.14 376.86 244.41
  Q 371.22 233.57 359.99 223.85
  Q 340.98 207.41 314.67 202.65
  C 306.26 201.13 297.20 201.29 288.47 201.79
  Q 282.50 202.14 277.99 203.28
  Q 276.09 203.77 276.79 206.98
  Z
  M 468.78 319.59
  Q 466.27 323.48 464.01 328.55
  C 462.20 332.60 454.37 334.43 450.72 332.17
  Q 438.39 324.50 425.30 325.36
  Q 418.31 325.81 408.20 328.39
  Q 407.26 328.63 405.76 329.54
  Q 405.72 329.31 405.45 329.26
  Q 405.03 329.18 404.82 329.56
  Q 404.41 330.27 403.76 329.78
  Q 399.94 329.86 392.75 331.70
  Q 372.97 336.77 357.65 341.02
  Q 306.65 355.16 256.56 369.34
  Q 232.20 376.24 206.00 384.01
  Q 194.71 387.35 191.15 389.17
  Q 181.38 394.14 177.34 402.29
  Q 170.06 416.94 179.81 429.42
  Q 187.69 437.43 197.32 438.98
  C 204.30 440.11 211.60 437.50 218.48 434.92
  Q 262.14 418.52 305.77 402.05
  Q 342.59 388.14 379.24 373.48
  Q 384.57 371.35 387.94 369.16
  C 391.28 367.01 392.74 362.82 396.14 360.59
  Q 399.14 358.62 403.69 356.69
  Q 410.46 353.83 417.18 351.14
  Q 424.68 348.15 429.02 347.56
  C 437.04 346.48 445.99 347.95 452.50 353.16
  C 459.95 359.12 467.31 366.37 475.49 371.17
  C 493.63 381.80 514.27 383.57 534.30 377.40
  C 555.91 370.74 576.68 358.01 590.60 339.78
  Q 598.60 329.32 600.86 319.32
  Q 602.72 311.07 598.99 302.95
  Q 596.78 295.97 589.80 291.84
  Q 590.19 290.36 588.43 289.29
  C 576.43 281.96 561.67 281.47 547.67 281.52
  Q 540.32 281.55 533.40 282.65
  C 516.65 285.32 501.55 289.86 487.25 298.90
  Q 477.06 305.34 470.57 314.84
  Q 469.26 316.75 468.78 319.59
  Z
  M 252.04 317.15
  C 244.36 329.10 238.78 340.41 234.94 353.85
  Q 234.34 355.94 234.77 358.02
  A 2.21 2.21 0.0 0 0 236.97 359.78
  C 240.64 359.70 246.62 358.29 248.05 354.34
  C 252.87 340.98 258.61 329.28 267.40 318.15
  Q 269.56 315.43 268.35 310.83
  C 267.25 306.62 259.51 307.45 257.28 310.08
  Q 254.46 313.38 252.04 317.15
  Z
  M 286.0086 334.4650
  A 6.15 5.84 72.8 0 0 289.7688 326.8631
  A 6.15 5.84 72.8 0 0 282.3714 322.7150
  A 6.15 5.84 72.8 0 0 278.6112 330.3169
  A 6.15 5.84 72.8 0 0 286.0086 334.4650
  Z
  M 403.56 373.07
  L 389.11 379.51
  L 381.70 383.10
  Q 381.27 383.31 381.26 383.79
  Q 381.13 391.93 380.91 400.49
  C 380.47 417.78 366.81 430.34 352.38 437.47
  Q 343.66 441.79 333.56 442.12
  Q 325.20 442.39 318.98 445.64
  C 314.50 447.97 310.03 452.84 314.07 458.04
  C 315.99 460.52 319.04 460.06 321.06 457.88
  Q 323.70 457.21 326.50 457.06
  C 334.75 456.61 343.40 456.37 351.25 453.58
  Q 362.69 449.51 373.24 442.96
  A 0.20 0.20 0.0 0 1 373.55 443.13
  C 373.61 448.67 371.71 462.39 365.02 463.19
  Q 364.58 463.24 364.34 462.86
  Q 364.21 462.66 364.05 462.54
  Q 363.79 461.85 363.00 461.99
  Q 355.02 463.41 348.94 469.59
  Q 343.37 472.48 338.30 478.30
  Q 327.91 490.23 329.05 505.66
  C 323.18 510.02 316.14 515.26 313.23 522.81
  Q 313.42 526.57 316.48 528.09
  A 1.06 1.05 37.4 0 0 317.65 527.94
  L 329.00 517.81
  A 0.45 0.45 0.0 0 1 329.71 517.97
  C 331.42 521.81 334.50 527.87 338.05 529.82
  Q 340.26 531.03 343.52 529.37
  Q 344.03 529.11 344.11 528.55
  Q 344.45 526.35 343.42 524.45
  C 336.63 511.93 337.02 497.29 346.09 486.42
  C 350.75 480.83 359.64 475.44 366.82 473.11
  A 1.18 1.17 -17.5 0 1 368.31 473.88
  Q 369.41 477.41 368.10 480.24
  Q 366.26 484.24 362.64 489.23
  Q 356.47 497.70 355.54 508.76
  C 354.62 519.76 359.99 529.71 367.23 537.79
  C 373.37 544.64 379.37 550.92 382.62 559.64
  C 384.00 563.35 383.76 567.13 383.97 570.99
  Q 384.15 574.35 387.16 575.87
  C 389.48 577.05 391.97 574.90 392.59 572.81
  C 394.68 565.71 391.98 555.15 388.82 549.41
  Q 385.13 542.72 379.23 536.31
  C 376.04 532.84 372.89 529.03 370.29 525.21
  Q 367.10 520.52 366.94 514.80
  Q 366.88 512.80 368.50 513.98
  Q 372.80 517.12 376.67 519.67
  Q 379.40 521.48 381.49 523.39
  C 383.89 525.59 387.36 530.04 390.60 526.19
  Q 392.08 524.42 389.52 519.93
  A 4.49 4.43 -81.5 0 0 388.84 519.00
  Q 382.33 511.99 373.83 506.52
  C 371.26 504.87 368.39 502.15 368.20 498.92
  C 367.87 493.04 369.81 488.95 373.98 485.08
  C 381.07 478.49 385.76 472.22 387.48 462.10
  Q 388.24 457.62 391.84 453.80
  C 394.48 451.00 398.75 450.80 401.64 453.23
  C 405.51 456.48 406.49 461.16 407.53 465.83
  C 408.79 471.52 412.31 477.18 415.99 481.31
  C 418.62 484.27 421.82 486.48 423.71 490.10
  Q 426.12 494.73 426.10 500.09
  C 424.95 503.02 420.80 506.45 418.39 508.83
  Q 413.56 511.66 410.24 516.01
  C 408.38 518.44 409.68 521.00 411.94 522.40
  Q 413.13 523.13 414.47 522.22
  Q 421.19 517.68 427.05 513.19
  A 0.41 0.41 0.0 0 1 427.71 513.52
  Q 427.68 521.17 422.08 526.67
  C 416.49 532.15 410.43 537.29 405.59 543.57
  C 403.21 546.65 400.71 552.15 403.09 555.73
  C 405.20 558.88 408.49 556.85 409.81 554.20
  C 415.43 542.90 427.19 537.61 433.65 527.09
  C 441.56 514.19 437.44 497.00 428.61 485.02
  C 426.53 482.21 425.44 478.83 425.73 475.26
  Q 425.85 473.72 427.39 473.82
  Q 428.32 473.88 429.19 474.23
  C 442.41 479.57 454.30 490.25 454.99 505.54
  C 455.32 512.75 453.47 518.19 449.99 524.07
  C 449.03 525.68 448.34 528.30 450.23 529.56
  C 456.25 533.58 462.20 520.92 463.33 516.99
  A 0.74 0.74 0.0 0 1 464.53 516.65
  Q 469.31 520.93 473.35 525.95
  Q 475.57 528.71 477.80 525.96
  L 478.12 525.56
  Q 480.29 522.88 478.48 519.93
  Q 473.65 512.09 466.18 506.63
  A 2.64 2.62 -73.4 0 1 465.11 504.63
  C 464.96 501.44 464.82 498.25 463.91 495.16
  Q 459.70 480.73 447.60 472.20
  Q 440.71 463.68 430.15 462.36
  Q 429.65 463.85 427.78 463.19
  Q 427.09 462.94 426.05 461.69
  C 422.92 457.89 421.66 450.12 421.44 445.06
  A 0.28 0.28 0.0 0 1 421.85 444.80
  C 429.99 449.16 438.62 453.29 447.71 455.27
  Q 450.81 455.95 459.87 456.71
  Q 467.05 457.31 474.23 458.49
  Q 475.49 460.49 478.02 459.47
  Q 481.56 458.04 481.34 453.98
  C 481.00 447.87 473.71 444.47 468.47 443.09
  Q 465.58 442.33 460.84 442.14
  Q 453.65 441.86 451.01 441.21
  Q 432.99 436.81 421.30 423.31
  Q 416.84 417.37 414.87 410.64
  Q 413.28 405.24 413.45 396.78
  Q 413.70 384.18 413.42 373.02
  Q 413.38 371.47 413.23 369.96
  A 0.54 0.54 0.0 0 0 412.49 369.51
  L 403.56 373.07
  Z
  M 267.87 449.67
  Q 259.80 459.81 246.01 463.47
  Q 243.48 464.14 242.84 466.90
  C 242.02 470.35 245.98 472.04 248.76 471.55
  Q 262.20 469.15 271.66 459.51
  Q 275.27 455.84 278.57 451.62
  C 286.72 441.19 297.19 438.42 309.83 437.47
  C 315.09 437.08 318.20 434.70 322.09 431.55
  C 327.12 427.48 333.88 427.41 339.88 425.97
  Q 351.64 423.14 360.65 415.18
  Q 366.82 409.73 367.70 401.23
  Q 368.07 397.71 364.73 396.77
  C 363.24 396.35 362.13 397.04 361.32 398.20
  C 360.12 399.94 359.05 401.71 357.44 403.13
  Q 351.24 408.59 342.25 411.53
  Q 341.13 411.89 332.88 412.92
  Q 321.35 414.36 312.22 421.99
  C 310.77 423.21 308.37 423.93 306.51 423.97
  C 295.27 424.19 283.61 427.46 276.58 435.83
  Q 272.41 440.81 267.87 449.67
  Z
  M 426.86 405.76
  Q 432.77 419.22 446.92 423.37
  Q 453.57 425.33 463.35 426.20
  C 465.88 426.42 468.47 426.97 470.42 428.67
  C 475.07 432.71 479.09 436.76 485.36 438.23
  Q 491.12 439.58 497.12 441.01
  Q 502.52 442.30 506.77 445.73
  C 510.57 448.80 513.25 453.97 516.59 457.77
  Q 527.56 470.27 543.29 471.61
  C 545.44 471.79 548.62 471.34 549.37 468.90
  C 550.33 465.77 548.52 463.74 545.57 463.17
  C 536.31 461.41 527.69 457.83 522.49 449.40
  C 519.16 444.00 515.78 439.66 510.27 436.00
  C 506.30 433.35 501.57 432.77 497.00 432.66
  Q 495.12 432.61 493.62 431.43
  Q 490.44 428.94 486.79 427.66
  C 486.03 427.40 484.78 426.56 484.24 425.97
  Q 481.39 422.78 478.38 419.88
  Q 475.25 416.87 471.37 415.85
  C 465.21 412.87 459.40 412.69 452.60 412.50
  Q 448.66 412.39 446.55 411.70
  Q 441.34 409.99 437.10 405.77
  L 432.88 399.72
  Q 431.66 398.04 430.49 397.79
  C 425.75 396.78 425.84 402.43 426.86 405.76
  Z
  M 499.05 432.34
  C 503.47 431.59 509.02 431.36 513.41 432.28
  Q 525.57 434.85 538.26 436.16
  Q 543.42 436.69 547.71 436.38
  C 554.05 435.93 552.16 427.85 546.63 427.60
  Q 541.26 427.36 536.28 426.72
  C 521.72 424.84 504.29 418.06 491.15 426.90
  A 0.81 0.80 -40.6 0 0 491.05 428.16
  C 493.34 430.29 495.52 432.94 499.05 432.34
  Z
  M 257.48 500.28
  C 257.53 503.96 259.74 506.63 263.51 505.37
  C 268.39 503.73 272.95 500.63 276.39 496.90
  C 280.41 492.54 283.21 485.25 285.88 479.22
  C 289.14 471.86 295.51 468.98 302.10 465.34
  Q 307.16 462.55 305.12 457.19
  Q 304.38 455.23 301.08 454.40
  Q 283.29 456.21 275.12 473.33
  Q 273.14 477.47 270.99 481.99
  Q 268.75 486.68 266.34 489.61
  Q 263.59 492.96 260.17 496.17
  Q 258.29 497.93 257.48 500.28
  Z
  M 490.44 456.53
  Q 488.13 457.16 487.63 459.36
  C 486.99 462.12 489.80 464.45 491.94 465.74
  Q 496.02 468.21 499.34 470.68
  C 504.27 474.37 506.85 480.59 508.89 486.34
  C 511.57 493.90 516.24 500.54 522.97 504.75
  C 528.10 507.97 533.38 503.48 529.03 498.46
  C 526.57 495.62 523.87 493.23 521.94 489.90
  Q 518.04 483.18 515.57 476.30
  Q 512.70 469.49 508.58 464.42
  C 505.70 460.87 495.32 451.08 490.44 456.53
  Z
  M 396.66 490.58
  L 406.96 502.38
  A 2.28 2.27 -33.4 0 0 409.67 502.93
  C 414.85 500.41 412.15 495.38 409.55 492.32
  Q 406.04 488.20 402.60 484.08
  C 398.37 479.03 402.18 471.50 397.60 467.54
  A 1.59 1.59 0.0 0 0 395.45 467.59
  C 393.60 469.35 393.50 475.37 393.37 478.00
  C 393.28 479.76 392.76 481.53 391.57 482.86
  Q 387.67 487.20 383.79 491.88
  Q 381.35 494.81 380.55 497.80
  C 379.57 501.41 383.71 505.43 386.84 501.34
  Q 391.39 495.38 395.85 490.57
  Q 396.26 490.12 396.66 490.58
  Z
  M 295.89 506.51
  Q 295.72 509.02 295.69 511.50
  Q 295.56 522.25 295.43 532.99
  Q 295.38 536.66 298.16 538.50
  C 300.18 539.84 302.92 538.63 303.86 536.67
  Q 304.64 535.04 304.59 532.83
  Q 304.36 522.03 304.79 513.67
  Q 305.12 507.38 308.06 500.07
  Q 313.05 487.68 324.77 483.41
  C 329.61 481.64 333.25 477.02 336.33 473.11
  Q 336.68 472.67 336.53 472.13
  L 336.27 471.18
  L 337.90 469.97
  Q 339.24 468.98 337.58 468.90
  Q 325.44 468.33 314.67 475.21
  Q 297.77 486.00 295.89 506.51
  Z
  M 457.77 470.78
  Q 457.65 471.35 456.84 471.24
  A 0.72 0.72 0.0 0 0 456.14 472.33
  Q 459.20 477.23 463.65 480.96
  C 466.33 483.20 469.65 484.02 472.74 485.53
  C 484.82 491.44 488.16 504.25 488.15 516.49
  Q 488.14 526.16 488.47 534.15
  Q 488.63 538.11 492.88 538.20
  Q 492.97 538.20 493.05 538.20
  Q 497.30 537.80 497.44 533.75
  Q 497.94 519.72 497.48 506.99
  Q 497.25 500.50 493.12 492.70
  Q 486.15 474.99 467.82 470.18
  Q 462.06 468.67 455.39 469.63
  Q 455.36 469.64 455.36 469.67
  L 455.40 469.92
  Q 455.45 470.17 455.69 470.14
  Q 456.87 469.99 457.77 470.78
  Z
  M 340.94 547.74
  A 0.45 0.45 0.0 0 1 341.66 547.54
  C 346.33 551.43 350.60 557.06 350.96 563.30
  C 351.15 566.51 351.62 571.19 355.91 571.09
  C 358.41 571.03 359.90 568.75 359.96 566.41
  C 360.17 558.77 358.83 552.77 353.68 547.01
  Q 346.94 539.48 338.93 534.16
  Q 337.78 533.40 337.09 534.58
  Q 335.63 537.07 334.89 539.69
  Q 333.32 545.27 332.08 550.62
  C 331.38 553.59 334.00 557.41 337.10 555.16
  C 339.14 553.69 340.20 550.08 340.94 547.74
  Z
  M 452.54 547.55
  Q 453.61 550.81 455.16 553.95
  Q 456.72 557.11 459.48 555.22
  Q 459.60 555.14 459.73 555.06
  Q 462.53 553.35 461.67 550.18
  Q 460.31 545.21 459.14 540.30
  C 458.53 537.75 456.87 532.60 453.19 535.02
  Q 446.90 539.14 441.58 544.39
  Q 431.85 553.99 433.32 567.39
  Q 433.68 570.63 436.50 571.25
  C 441.26 572.30 441.79 565.41 442.11 562.50
  C 442.77 556.53 447.18 550.79 451.92 547.35
  A 0.41 0.40 -26.8 0 1 452.54 547.55
  Z"
/>
<path fill="#fafbf4" d="
  M 422.27 162.58
  Q 412.19 146.74 398.53 135.24
  A 0.74 0.73 -45.3 0 0 397.57 135.25
  Q 391.01 140.98 385.85 147.86
  Q 374.10 163.52 368.43 181.07
  C 366.28 185.55 365.57 189.63 364.31 194.12
  Q 363.52 196.92 363.17 199.46
  Q 362.78 202.22 362.37 204.88
  Q 360.66 193.74 363.08 182.91
  Q 370.33 150.44 395.88 128.55
  Q 396.26 128.23 396.64 128.55
  Q 413.47 142.47 422.27 162.58
  Z"
/>
<path fill="#6ac741" d="
  M 422.27 162.58
  Q 427.06 171.05 429.24 181.14
  Q 427.76 182.91 426.56 186.52
  Q 425.44 189.91 421.46 196.50
  Q 414.89 207.35 403.20 212.81
  Q 403.14 202.51 403.14 192.25
  C 403.14 187.91 403.58 182.84 397.80 182.04
  C 391.92 181.21 390.02 185.89 390.04 190.75
  Q 390.08 201.81 390.09 213.15
  Q 378.12 207.40 372.72 196.17
  Q 371.48 193.59 370.34 188.70
  Q 369.49 185.04 368.43 181.07
  Q 374.10 163.52 385.85 147.86
  Q 391.01 140.98 397.57 135.25
  A 0.74 0.73 -45.3 0 1 398.53 135.24
  Q 412.19 146.74 422.27 162.58
  Z"
/>
<path fill="#42952c" d="
  M 390.09 213.15
  L 389.89 234.81
  Q 389.87 235.95 389.39 234.92
  Q 388.11 232.23 386.08 229.39
  Q 376.27 215.67 362.37 204.88
  Q 362.78 202.22 363.17 199.46
  Q 363.52 196.92 364.31 194.12
  C 365.57 189.63 366.28 185.55 368.43 181.07
  Q 369.49 185.04 370.34 188.70
  Q 371.48 193.59 372.72 196.17
  Q 378.12 207.40 390.09 213.15
  Z"
/>
<path fill="#42952c" d="
  M 429.24 181.14
  Q 430.96 188.02 431.95 197.50
  Q 432.33 201.15 431.93 204.27
  Q 431.87 204.72 431.49 204.95
  C 419.51 212.40 410.88 222.85 403.54 235.05
  Q 402.69 236.45 402.73 234.82
  L 403.20 212.81
  Q 414.89 207.35 421.46 196.50
  Q 425.44 189.91 426.56 186.52
  Q 427.76 182.91 429.24 181.14
  Z"
/>
<path fill="#fafbf4" d="
  M 386.16 269.05
  Q 385.68 270.53 384.86 268.16
  Q 384.43 266.89 382.81 266.31
  C 377.43 264.39 374.51 258.31 372.27 253.49
  C 367.53 243.27 358.59 233.49 350.08 227.06
  Q 335.70 216.20 315.15 210.39
  Q 311.04 209.23 306.50 208.73
  Q 290.46 207.00 276.79 206.98
  Q 276.09 203.77 277.99 203.28
  Q 282.50 202.14 288.47 201.79
  C 297.20 201.29 306.26 201.13 314.67 202.65
  Q 340.98 207.41 359.99 223.85
  Q 371.22 233.57 376.86 244.41
  Q 381.92 254.14 382.87 257.64
  Q 384.43 263.34 386.16 269.05
  Z"
/>
<path fill="#fafbf4" d="
  M 515.73 206.02
  Q 508.56 206.97 506.25 207.05
  Q 492.25 207.54 481.84 209.68
  Q 471.35 211.83 460.09 216.95
  C 441.95 225.20 426.38 240.15 418.88 258.20
  C 417.38 261.81 415.42 264.19 411.88 265.84
  Q 410.26 266.60 408.86 267.99
  Q 407.60 269.23 406.18 270.65
  Q 410.69 255.90 412.79 251.26
  Q 425.82 222.59 453.89 210.12
  Q 456.32 209.04 465.26 206.00
  C 480.88 200.67 497.71 200.39 513.91 203.08
  C 515.37 203.32 515.71 204.69 515.73 206.02
  Z"
/>
<path fill="#6ac741" d="
  M 515.73 206.02
  Q 516.43 213.03 515.51 219.93
  Q 515.03 221.00 514.57 221.77
  Q 513.93 222.84 513.65 223.59
  Q 510.27 232.80 504.60 239.91
  Q 496.01 250.69 481.89 257.93
  C 478.28 259.78 475.77 262.68 474.42 266.56
  C 473.12 270.33 471.02 273.22 467.49 275.11
  Q 460.62 278.79 452.75 280.04
  Q 449.47 280.56 440.57 280.35
  C 449.92 265.90 461.39 253.88 474.19 242.68
  Q 476.66 240.50 476.71 237.60
  C 476.79 232.60 472.04 229.27 467.47 231.91
  Q 465.67 232.95 465.02 233.52
  Q 452.81 244.26 441.64 256.06
  Q 441.45 255.31 440.81 255.13
  Q 440.38 255.01 439.97 255.20
  C 431.04 259.56 421.84 265.16 417.91 274.48
  C 416.53 277.75 415.58 282.19 415.21 285.73
  Q 414.27 294.92 414.52 304.26
  L 413.13 310.55
  Q 413.02 311.05 412.51 311.17
  L 404.71 313.00
  Q 404.99 304.15 404.91 295.03
  Q 404.89 293.11 404.29 288.50
  Q 403.88 285.35 403.99 281.89
  L 406.18 270.65
  Q 407.60 269.23 408.86 267.99
  Q 410.26 266.60 411.88 265.84
  C 415.42 264.19 417.38 261.81 418.88 258.20
  C 426.38 240.15 441.95 225.20 460.09 216.95
  Q 471.35 211.83 481.84 209.68
  Q 492.25 207.54 506.25 207.05
  Q 508.56 206.97 515.73 206.02
  Z"
/>
<path fill="#6ac741" d="
  M 276.79 206.98
  Q 290.46 207.00 306.50 208.73
  Q 311.04 209.23 315.15 210.39
  Q 335.70 216.20 350.08 227.06
  C 358.59 233.49 367.53 243.27 372.27 253.49
  C 374.51 258.31 377.43 264.39 382.81 266.31
  Q 384.43 266.89 384.86 268.16
  Q 385.68 270.53 386.16 269.05
  L 389.66 284.14
  Q 388.02 285.95 388.39 288.11
  Q 388.91 291.12 388.91 291.21
  Q 389.06 299.07 388.76 306.52
  Q 385.41 311.43 380.63 314.27
  L 377.98 302.04
  Q 378.07 296.30 378.06 290.75
  Q 378.05 286.51 376.66 278.27
  Q 375.22 269.70 367.06 263.94
  Q 358.90 258.18 349.57 253.87
  Q 341.61 246.12 333.11 238.15
  Q 330.31 235.53 327.15 233.15
  Q 322.35 229.54 318.55 232.43
  C 315.17 235.00 315.56 239.83 318.59 242.64
  Q 327.48 250.88 335.68 259.31
  Q 343.58 267.43 352.06 280.06
  Q 343.65 281.19 335.88 279.29
  Q 330.49 277.97 326.35 275.67
  C 320.80 272.58 319.05 267.66 316.20 262.31
  Q 315.35 260.72 313.69 259.62
  C 309.91 257.12 305.23 255.15 302.74 253.36
  Q 289.93 244.18 282.02 230.76
  Q 279.14 225.86 277.78 223.88
  Q 275.87 215.74 276.79 206.98
  Z"
/>
<path fill="#42952c" d="
  M 515.51 219.93
  C 513.96 242.24 504.80 265.61 487.85 280.42
  Q 477.25 289.69 463.77 294.24
  Q 449.43 299.08 433.40 296.06
  Q 432.66 295.92 432.81 295.17
  Q 433.09 293.76 433.73 292.47
  Q 437.05 285.78 440.57 280.35
  Q 449.47 280.56 452.75 280.04
  Q 460.62 278.79 467.49 275.11
  C 471.02 273.22 473.12 270.33 474.42 266.56
  C 475.77 262.68 478.28 259.78 481.89 257.93
  Q 496.01 250.69 504.60 239.91
  Q 510.27 232.80 513.65 223.59
  Q 513.93 222.84 514.57 221.77
  Q 515.03 221.00 515.51 219.93
  Z"
/>
<path fill="#42952c" d="
  M 277.78 223.88
  Q 279.14 225.86 282.02 230.76
  Q 289.93 244.18 302.74 253.36
  C 305.23 255.15 309.91 257.12 313.69 259.62
  Q 315.35 260.72 316.20 262.31
  C 319.05 267.66 320.80 272.58 326.35 275.67
  Q 330.49 277.97 335.88 279.29
  Q 343.65 281.19 352.06 280.06
  L 360.00 295.11
  A 0.70 0.70 0.0 0 1 359.51 296.13
  Q 339.13 300.09 320.67 291.24
  C 301.88 282.23 289.33 264.48 282.26 244.99
  C 280.25 239.46 279.02 233.45 277.79 227.75
  Q 277.36 225.78 277.78 223.88
  Z"
/>
<path fill="#42952c" d="
  M 349.57 253.87
  Q 358.90 258.18 367.06 263.94
  Q 375.22 269.70 376.66 278.27
  Q 378.05 286.51 378.06 290.75
  Q 378.07 296.30 377.98 302.04
  C 376.41 298.27 375.28 294.09 373.81 290.73
  Q 369.44 280.73 365.39 274.35
  Q 359.86 265.62 349.57 253.87
  Z"
/>
<path fill="#42952c" d="
  M 441.64 256.06
  Q 436.59 262.32 431.73 268.70
  Q 421.53 282.09 417.10 296.77
  Q 415.42 302.32 414.52 304.26
  Q 414.27 294.92 415.21 285.73
  C 415.58 282.19 416.53 277.75 417.91 274.48
  C 421.84 265.16 431.04 259.56 439.97 255.20
  Q 440.38 255.01 440.81 255.13
  Q 441.45 255.31 441.64 256.06
  Z"
/>
<path fill="#b3713d" d="
  M 403.99 281.89
  Q 403.88 285.35 404.29 288.50
  Q 404.89 293.11 404.91 295.03
  Q 404.99 304.15 404.71 313.00
  L 389.12 317.45
  L 388.76 306.52
  Q 389.06 299.07 388.91 291.21
  Q 388.91 291.12 388.39 288.11
  Q 388.02 285.95 389.66 284.14
  C 391.34 288.76 395.90 292.69 400.47 288.71
  Q 402.66 286.81 403.99 281.89
  Z"
/>
<path fill="#b3713d" d="
  M 589.02 293.39
  Q 595.05 296.57 596.58 298.94
  Q 598.06 301.23 597.63 303.51
  Q 596.26 310.80 591.37 315.09
  Q 582.25 321.31 573.45 326.92
  Q 568.58 330.03 564.01 332.25
  C 557.93 335.21 551.54 338.52 544.85 340.86
  Q 540.51 342.38 535.24 344.25
  Q 520.86 349.36 504.30 349.95
  Q 480.63 350.79 463.42 339.89
  A 0.66 0.66 0.0 0 0 462.81 339.83
  Q 462.17 340.10 462.46 340.44
  L 460.04 337.75
  A 0.40 0.40 0.0 0 1 460.28 337.09
  Q 461.64 336.88 462.92 336.09
  Q 470.07 331.67 475.36 325.02
  Q 476.54 324.32 478.02 323.42
  Q 479.45 322.54 480.53 321.44
  C 490.26 311.52 500.66 303.90 513.87 299.03
  Q 541.24 288.95 570.49 291.70
  Q 575.38 292.16 585.27 294.44
  Q 587.58 294.97 589.02 293.39
  Z"
/>
<path fill="#fafbf4" d="
  M 589.80 291.84
  Q 596.78 295.97 598.99 302.95
  Q 597.67 309.65 593.67 316.23
  Q 587.77 325.92 580.79 332.79
  Q 572.84 340.61 565.36 346.43
  Q 554.11 355.17 538.26 361.92
  Q 524.68 367.70 511.27 368.72
  Q 485.07 370.71 466.32 353.05
  C 461.86 348.86 456.55 343.87 452.44 341.57
  Q 434.23 331.38 413.79 337.36
  Q 413.95 335.60 413.27 334.76
  Q 412.91 334.33 412.00 334.20
  Q 411.10 334.08 410.50 334.05
  C 408.79 333.98 407.29 332.87 407.81 330.99
  Q 408.00 330.31 407.30 330.28
  Q 406.05 330.21 405.76 329.54
  Q 407.26 328.63 408.20 328.39
  Q 418.31 325.81 425.30 325.36
  Q 438.39 324.50 450.72 332.17
  C 454.37 334.43 462.20 332.60 464.01 328.55
  Q 466.27 323.48 468.78 319.59
  L 475.36 325.02
  Q 470.07 331.67 462.92 336.09
  Q 461.64 336.88 460.28 337.09
  A 0.40 0.40 0.0 0 0 460.04 337.75
  L 462.46 340.44
  C 468.29 347.50 475.06 353.29 483.45 357.08
  Q 488.32 359.28 495.14 360.30
  C 506.91 362.06 518.75 360.08 530.13 356.45
  C 536.67 354.37 543.21 351.39 549.33 348.35
  Q 562.78 341.67 580.99 326.25
  Q 587.94 320.36 591.37 315.09
  Q 596.26 310.80 597.63 303.51
  Q 598.06 301.23 596.58 298.94
  Q 595.05 296.57 589.02 293.39
  Q 589.60 292.61 589.80 291.84
  Z"
/>
<path fill="#75401a" d="
  M 598.99 302.95
  Q 602.72 311.07 600.86 319.32
  Q 598.60 329.32 590.60 339.78
  C 576.68 358.01 555.91 370.74 534.30 377.40
  C 514.27 383.57 493.63 381.80 475.49 371.17
  C 467.31 366.37 459.95 359.12 452.50 353.16
  C 445.99 347.95 437.04 346.48 429.02 347.56
  Q 424.68 348.15 417.18 351.14
  Q 410.46 353.83 403.69 356.69
  Q 399.14 358.62 396.14 360.59
  C 392.74 362.82 391.28 367.01 387.94 369.16
  Q 384.57 371.35 379.24 373.48
  Q 342.59 388.14 305.77 402.05
  Q 262.14 418.52 218.48 434.92
  C 211.60 437.50 204.30 440.11 197.32 438.98
  Q 187.69 437.43 179.81 429.42
  Q 183.18 428.99 183.19 426.75
  Q 183.20 424.22 183.27 420.95
  Q 191.50 427.12 200.72 425.36
  Q 205.33 424.48 214.79 420.98
  Q 277.76 397.60 326.02 379.49
  Q 338.47 374.82 353.16 368.87
  C 361.67 365.42 369.56 358.45 378.43 353.78
  Q 390.06 347.66 402.34 341.67
  L 413.79 337.36
  Q 434.23 331.38 452.44 341.57
  C 456.55 343.87 461.86 348.86 466.32 353.05
  Q 485.07 370.71 511.27 368.72
  Q 524.68 367.70 538.26 361.92
  Q 554.11 355.17 565.36 346.43
  Q 572.84 340.61 580.79 332.79
  Q 587.77 325.92 593.67 316.23
  Q 597.67 309.65 598.99 302.95
  Z"
/>
<path fill="#fafbf4" d="
  M 388.76 306.52
  L 389.12 317.45
  Q 385.96 318.96 382.06 319.42
  Q 381.57 319.48 381.49 319.00
  L 380.63 314.27
  Q 385.41 311.43 388.76 306.52
  Z"
/>
<path fill="#75401a" d="
  M 591.37 315.09
  Q 587.94 320.36 580.99 326.25
  Q 562.78 341.67 549.33 348.35
  C 543.21 351.39 536.67 354.37 530.13 356.45
  C 518.75 360.08 506.91 362.06 495.14 360.30
  Q 488.32 359.28 483.45 357.08
  C 475.06 353.29 468.29 347.50 462.46 340.44
  Q 462.17 340.10 462.81 339.83
  A 0.66 0.66 0.0 0 1 463.42 339.89
  Q 480.63 350.79 504.30 349.95
  Q 520.86 349.36 535.24 344.25
  Q 540.51 342.38 544.85 340.86
  C 551.54 338.52 557.93 335.21 564.01 332.25
  Q 568.58 330.03 573.45 326.92
  Q 582.25 321.31 591.37 315.09
  Z"
/>
<path fill="#b3713d" d="
  M 402.34 341.67
  Q 390.06 347.66 378.43 353.78
  C 369.56 358.45 361.67 365.42 353.16 368.87
  Q 338.47 374.82 326.02 379.49
  Q 277.76 397.60 214.79 420.98
  Q 205.33 424.48 200.72 425.36
  Q 191.50 427.12 183.27 420.95
  Q 182.85 413.26 183.25 410.74
  Q 184.23 404.56 190.24 398.74
  C 195.92 393.24 204.51 392.70 211.76 396.35
  Q 212.35 396.65 213.00 396.53
  Q 216.63 395.86 220.29 394.74
  Q 246.03 386.82 274.51 378.79
  C 294.39 373.19 314.28 367.09 334.00 361.53
  Q 342.22 359.21 373.00 349.71
  Q 381.28 347.16 402.34 341.67
  Z"
/>
<path fill="#75401a" d="
  M 421.30 423.31
  Q 422.50 431.66 429.24 437.72
  Q 411.95 435.68 405.94 418.77
  Q 404.88 415.78 404.32 411.24
  Q 403.26 402.67 403.11 397.52
  Q 403.66 396.48 403.64 394.90
  L 403.56 373.07
  L 412.49 369.51
  A 0.54 0.54 0.0 0 1 413.23 369.96
  Q 413.38 371.47 413.42 373.02
  Q 413.70 384.18 413.45 396.78
  Q 413.28 405.24 414.87 410.64
  Q 416.84 417.37 421.30 423.31
  Z"
/>
<path fill="#b3713d" d="
  M 403.56 373.07
  L 403.64 394.90
  Q 399.89 396.50 397.51 396.93
  C 395.65 397.27 389.44 396.54 389.14 393.86
  Q 388.43 387.46 389.11 379.51
  L 403.56 373.07
  Z"
/>
<path fill="#fafbf4" d="
  M 389.11 379.51
  Q 388.43 387.46 389.14 393.86
  C 389.44 396.54 395.65 397.27 397.51 396.93
  Q 399.89 396.50 403.64 394.90
  Q 403.66 396.48 403.11 397.52
  Q 398.03 402.80 391.09 402.17
  Q 390.59 402.13 390.17 401.86
  Q 389.78 401.60 389.39 401.72
  Q 388.96 401.85 388.95 402.30
  Q 388.67 410.00 386.53 414.98
  Q 380.90 428.08 368.72 435.76
  C 359.21 441.75 349.12 446.93 337.63 448.24
  Q 332.61 448.82 328.01 449.48
  Q 320.38 450.58 321.06 457.88
  C 319.04 460.06 315.99 460.52 314.07 458.04
  C 310.03 452.84 314.50 447.97 318.98 445.64
  Q 325.20 442.39 333.56 442.12
  Q 343.66 441.79 352.38 437.47
  C 366.81 430.34 380.47 417.78 380.91 400.49
  Q 381.13 391.93 381.26 383.79
  Q 381.27 383.31 381.70 383.10
  L 389.11 379.51
  Z"
/>
<path fill="#fafbf4" d="
  M 367.70 401.23
  Q 361.30 408.75 356.86 411.62
  C 350.96 415.45 340.83 418.08 332.91 419.37
  C 325.77 420.52 319.70 423.31 314.17 427.75
  C 313.21 428.53 312.07 428.94 310.88 429.15
  Q 305.52 430.09 299.86 430.83
  Q 290.88 432.00 283.17 437.24
  Q 280.67 438.94 275.55 443.49
  Q 271.91 446.73 267.87 449.67
  Q 272.41 440.81 276.58 435.83
  C 283.61 427.46 295.27 424.19 306.51 423.97
  C 308.37 423.93 310.77 423.21 312.22 421.99
  Q 321.35 414.36 332.88 412.92
  Q 341.13 411.89 342.25 411.53
  Q 351.24 408.59 357.44 403.13
  C 359.05 401.71 360.12 399.94 361.32 398.20
  C 362.13 397.04 363.24 396.35 364.73 396.77
  Q 368.07 397.71 367.70 401.23
  Z"
/>
<path fill="#b3713d" d="
  M 403.11 397.52
  Q 403.26 402.67 404.32 411.24
  Q 404.88 415.78 405.94 418.77
  Q 411.95 435.68 429.24 437.72
  Q 439.11 444.15 450.79 447.19
  Q 454.47 448.15 458.27 448.36
  C 462.93 448.62 470.15 448.86 472.45 453.27
  Q 473.01 454.32 474.23 458.49
  Q 467.05 457.31 459.87 456.71
  Q 450.81 455.95 447.71 455.27
  C 438.62 453.29 429.99 449.16 421.85 444.80
  A 0.28 0.28 0.0 0 0 421.44 445.06
  C 421.66 450.12 422.92 457.89 426.05 461.69
  Q 427.09 462.94 427.78 463.19
  Q 429.65 463.85 430.15 462.36
  Q 438.75 468.18 447.60 472.20
  Q 459.70 480.73 463.91 495.16
  C 464.82 498.25 464.96 501.44 465.11 504.63
  A 2.64 2.62 -73.4 0 0 466.18 506.63
  Q 473.65 512.09 478.48 519.93
  Q 480.29 522.88 478.12 525.56
  L 477.80 525.96
  Q 475.57 528.71 473.35 525.95
  Q 469.31 520.93 464.53 516.65
  A 0.74 0.74 0.0 0 0 463.33 516.99
  C 462.20 520.92 456.25 533.58 450.23 529.56
  C 448.34 528.30 449.03 525.68 449.99 524.07
  C 453.47 518.19 455.32 512.75 454.99 505.54
  C 454.30 490.25 442.41 479.57 429.19 474.23
  Q 428.32 473.88 427.39 473.82
  Q 425.85 473.72 425.73 475.26
  C 425.44 478.83 426.53 482.21 428.61 485.02
  C 437.44 497.00 441.56 514.19 433.65 527.09
  C 427.19 537.61 415.43 542.90 409.81 554.20
  C 408.49 556.85 405.20 558.88 403.09 555.73
  C 400.71 552.15 403.21 546.65 405.59 543.57
  C 410.43 537.29 416.49 532.15 422.08 526.67
  Q 427.68 521.17 427.71 513.52
  A 0.41 0.41 0.0 0 0 427.05 513.19
  Q 421.19 517.68 414.47 522.22
  Q 413.13 523.13 411.94 522.40
  C 409.68 521.00 408.38 518.44 410.24 516.01
  Q 413.56 511.66 418.39 508.83
  L 425.57 505.60
  Q 426.04 505.39 426.22 504.91
  Q 427.32 502.06 426.10 500.09
  Q 426.12 494.73 423.71 490.10
  C 421.82 486.48 418.62 484.27 415.99 481.31
  C 412.31 477.18 408.79 471.52 407.53 465.83
  C 406.49 461.16 405.51 456.48 401.64 453.23
  C 398.75 450.80 394.48 451.00 391.84 453.80
  Q 388.24 457.62 387.48 462.10
  C 385.76 472.22 381.07 478.49 373.98 485.08
  C 369.81 488.95 367.87 493.04 368.20 498.92
  C 368.39 502.15 371.26 504.87 373.83 506.52
  Q 382.33 511.99 388.84 519.00
  A 4.49 4.43 -81.5 0 1 389.52 519.93
  Q 392.08 524.42 390.60 526.19
  C 387.36 530.04 383.89 525.59 381.49 523.39
  Q 379.40 521.48 376.67 519.67
  Q 372.80 517.12 368.50 513.98
  Q 366.88 512.80 366.94 514.80
  Q 367.10 520.52 370.29 525.21
  C 372.89 529.03 376.04 532.84 379.23 536.31
  Q 385.13 542.72 388.82 549.41
  C 391.98 555.15 394.68 565.71 392.59 572.81
  C 391.97 574.90 389.48 577.05 387.16 575.87
  Q 384.15 574.35 383.97 570.99
  C 383.76 567.13 384.00 563.35 382.62 559.64
  C 379.37 550.92 373.37 544.64 367.23 537.79
  C 359.99 529.71 354.62 519.76 355.54 508.76
  Q 356.47 497.70 362.64 489.23
  Q 366.26 484.24 368.10 480.24
  Q 369.41 477.41 368.31 473.88
  A 1.18 1.17 -17.5 0 0 366.82 473.11
  C 359.64 475.44 350.75 480.83 346.09 486.42
  C 337.02 497.29 336.63 511.93 343.42 524.45
  Q 344.45 526.35 344.11 528.55
  Q 344.03 529.11 343.52 529.37
  Q 340.26 531.03 338.05 529.82
  C 334.50 527.87 331.42 521.81 329.71 517.97
  A 0.45 0.45 0.0 0 0 329.00 517.81
  L 317.65 527.94
  A 1.06 1.05 37.4 0 1 316.48 528.09
  Q 313.42 526.57 313.23 522.81
  Q 317.92 521.41 321.84 518.81
  Q 324.21 517.23 326.30 513.78
  Q 329.19 509.01 329.05 505.66
  Q 327.91 490.23 338.30 478.30
  Q 343.37 472.48 348.94 469.59
  L 363.91 462.95
  Q 364.00 462.91 364.03 462.81
  Q 364.06 462.68 364.05 462.54
  Q 364.21 462.66 364.34 462.86
  Q 364.58 463.24 365.02 463.19
  C 371.71 462.39 373.61 448.67 373.55 443.13
  A 0.20 0.20 0.0 0 0 373.24 442.96
  Q 362.69 449.51 351.25 453.58
  C 343.40 456.37 334.75 456.61 326.50 457.06
  Q 323.70 457.21 321.06 457.88
  Q 320.38 450.58 328.01 449.48
  Q 332.61 448.82 337.63 448.24
  C 349.12 446.93 359.21 441.75 368.72 435.76
  Q 380.90 428.08 386.53 414.98
  Q 388.67 410.00 388.95 402.30
  Q 388.96 401.85 389.39 401.72
  Q 389.78 401.60 390.17 401.86
  Q 390.59 402.13 391.09 402.17
  Q 398.03 402.80 403.11 397.52
  Z"
/>
<path fill="#fafbf4" d="
  M 432.88 399.72
  Q 428.85 402.14 426.86 405.76
  C 425.84 402.43 425.75 396.78 430.49 397.79
  Q 431.66 398.04 432.88 399.72
  Z"
/>
<path fill="#b3713d" d="
  M 432.88 399.72
  L 437.10 405.77
  Q 440.30 410.82 443.98 412.27
  Q 449.71 414.54 453.00 414.98
  Q 460.25 415.94 467.49 417.00
  Q 470.26 417.40 471.37 415.85
  Q 475.25 416.87 478.38 419.88
  Q 481.39 422.78 484.24 425.97
  C 484.78 426.56 486.03 427.40 486.79 427.66
  Q 490.44 428.94 493.62 431.43
  Q 495.12 432.61 497.00 432.66
  C 501.57 432.77 506.30 433.35 510.27 436.00
  C 515.78 439.66 519.16 444.00 522.49 449.40
  C 527.69 457.83 536.31 461.41 545.57 463.17
  C 548.52 463.74 550.33 465.77 549.37 468.90
  C 548.62 471.34 545.44 471.79 543.29 471.61
  Q 527.56 470.27 516.59 457.77
  C 513.25 453.97 510.57 448.80 506.77 445.73
  Q 502.52 442.30 497.12 441.01
  Q 491.12 439.58 485.36 438.23
  C 479.09 436.76 475.07 432.71 470.42 428.67
  C 468.47 426.97 465.88 426.42 463.35 426.20
  Q 453.57 425.33 446.92 423.37
  Q 432.77 419.22 426.86 405.76
  Q 428.85 402.14 432.88 399.72
  Z"
/>
<path fill="#b3713d" d="
  M 367.70 401.23
  Q 366.82 409.73 360.65 415.18
  Q 351.64 423.14 339.88 425.97
  C 333.88 427.41 327.12 427.48 322.09 431.55
  C 318.20 434.70 315.09 437.08 309.83 437.47
  C 297.19 438.42 286.72 441.19 278.57 451.62
  Q 275.27 455.84 271.66 459.51
  Q 262.20 469.15 248.76 471.55
  C 245.98 472.04 242.02 470.35 242.84 466.90
  Q 243.48 464.14 246.01 463.47
  Q 259.80 459.81 267.87 449.67
  Q 271.91 446.73 275.55 443.49
  Q 280.67 438.94 283.17 437.24
  Q 290.88 432.00 299.86 430.83
  Q 305.52 430.09 310.88 429.15
  C 312.07 428.94 313.21 428.53 314.17 427.75
  C 319.70 423.31 325.77 420.52 332.91 419.37
  C 340.83 418.08 350.96 415.45 356.86 411.62
  Q 361.30 408.75 367.70 401.23
  Z"
/>
<path fill="#fafbf4" d="
  M 437.10 405.77
  Q 441.34 409.99 446.55 411.70
  Q 448.66 412.39 452.60 412.50
  C 459.40 412.69 465.21 412.87 471.37 415.85
  Q 470.26 417.40 467.49 417.00
  Q 460.25 415.94 453.00 414.98
  Q 449.71 414.54 443.98 412.27
  Q 440.30 410.82 437.10 405.77
  Z"
/>
<path fill="#b3713d" d="
  M 499.05 432.34
  C 495.52 432.94 493.34 430.29 491.05 428.16
  A 0.81 0.80 -40.6 0 1 491.15 426.90
  C 504.29 418.06 521.72 424.84 536.28 426.72
  Q 541.26 427.36 546.63 427.60
  C 552.16 427.85 554.05 435.93 547.71 436.38
  Q 543.42 436.69 538.26 436.16
  Q 525.57 434.85 513.41 432.28
  C 509.02 431.36 503.47 431.59 499.05 432.34
  Z"
/>
<path fill="#fafbf4" d="
  M 421.30 423.31
  Q 432.99 436.81 451.01 441.21
  Q 453.65 441.86 460.84 442.14
  Q 465.58 442.33 468.47 443.09
  C 473.71 444.47 481.00 447.87 481.34 453.98
  Q 481.56 458.04 478.02 459.47
  Q 475.49 460.49 474.23 458.49
  Q 473.01 454.32 472.45 453.27
  C 470.15 448.86 462.93 448.62 458.27 448.36
  Q 454.47 448.15 450.79 447.19
  Q 439.11 444.15 429.24 437.72
  Q 422.50 431.66 421.30 423.31
  Z"
/>
<path fill="#fafbf4" d="
  M 301.08 454.40
  Q 302.65 455.64 302.79 456.26
  Q 303.23 458.18 301.61 459.19
  C 298.56 461.07 295.18 461.89 292.11 463.73
  Q 286.05 467.38 282.28 474.03
  C 278.68 480.39 276.17 488.60 270.15 493.15
  Q 265.63 496.58 257.48 500.28
  Q 258.29 497.93 260.17 496.17
  Q 263.59 492.96 266.34 489.61
  Q 268.75 486.68 270.99 481.99
  Q 273.14 477.47 275.12 473.33
  Q 283.29 456.21 301.08 454.40
  Z"
/>
<path fill="#b3713d" d="
  M 301.08 454.40
  Q 304.38 455.23 305.12 457.19
  Q 307.16 462.55 302.10 465.34
  C 295.51 468.98 289.14 471.86 285.88 479.22
  C 283.21 485.25 280.41 492.54 276.39 496.90
  C 272.95 500.63 268.39 503.73 263.51 505.37
  C 259.74 506.63 257.53 503.96 257.48 500.28
  Q 265.63 496.58 270.15 493.15
  C 276.17 488.60 278.68 480.39 282.28 474.03
  Q 286.05 467.38 292.11 463.73
  C 295.18 461.89 298.56 461.07 301.61 459.19
  Q 303.23 458.18 302.79 456.26
  Q 302.65 455.64 301.08 454.40
  Z"
/>
<path fill="#fafbf4" d="
  M 515.57 476.30
  Q 508.15 465.83 497.27 461.72
  Q 492.52 459.92 490.44 456.53
  C 495.32 451.08 505.70 460.87 508.58 464.42
  Q 512.70 469.49 515.57 476.30
  Z"
/>
<path fill="#75401a" d="
  M 490.44 456.53
  Q 492.52 459.92 497.27 461.72
  Q 508.15 465.83 515.57 476.30
  Q 518.04 483.18 521.94 489.90
  C 523.87 493.23 526.57 495.62 529.03 498.46
  C 533.38 503.48 528.10 507.97 522.97 504.75
  C 516.24 500.54 511.57 493.90 508.89 486.34
  C 506.85 480.59 504.27 474.37 499.34 470.68
  Q 496.02 468.21 491.94 465.74
  C 489.80 464.45 486.99 462.12 487.63 459.36
  Q 488.13 457.16 490.44 456.53
  Z"
/>
<path fill="#fafbf4" d="
  M 364.05 462.54
  Q 364.06 462.68 364.03 462.81
  Q 364.00 462.91 363.91 462.95
  L 348.94 469.59
  Q 355.02 463.41 363.00 461.99
  Q 363.79 461.85 364.05 462.54
  Z"
/>
<path fill="#fafbf4" d="
  M 447.60 472.20
  Q 438.75 468.18 430.15 462.36
  Q 440.71 463.68 447.60 472.20
  Z"
/>
<path fill="#b3713d" d="
  M 396.66 490.58
  Q 396.26 490.12 395.85 490.57
  Q 391.39 495.38 386.84 501.34
  C 383.71 505.43 379.57 501.41 380.55 497.80
  Q 381.35 494.81 383.79 491.88
  Q 387.67 487.20 391.57 482.86
  C 392.76 481.53 393.28 479.76 393.37 478.00
  C 393.50 475.37 393.60 469.35 395.45 467.59
  A 1.59 1.59 0.0 0 1 397.60 467.54
  C 402.18 471.50 398.37 479.03 402.60 484.08
  Q 406.04 488.20 409.55 492.32
  C 412.15 495.38 414.85 500.41 409.67 502.93
  A 2.28 2.27 -33.4 0 1 406.96 502.38
  L 396.66 490.58
  Z"
/>
<path fill="#fafbf4" d="
  M 336.27 471.18
  Q 332.05 473.80 327.49 475.79
  Q 320.19 478.96 318.56 480.03
  Q 311.45 484.68 307.33 492.21
  C 304.82 496.81 303.69 501.89 302.26 506.90
  A 1.58 1.55 -87.1 0 1 301.06 508.00
  Q 298.60 508.49 295.89 506.51
  Q 297.77 486.00 314.67 475.21
  Q 325.44 468.33 337.58 468.90
  Q 339.24 468.98 337.90 469.97
  L 336.27 471.18
  Z"
/>
<path fill="#fafbf4" d="
  M 493.12 492.70
  Q 486.16 483.65 476.24 479.05
  Q 473.22 477.65 468.24 476.04
  Q 462.85 474.29 457.77 470.78
  Q 456.87 469.99 455.69 470.14
  Q 455.45 470.17 455.40 469.92
  L 455.36 469.67
  Q 455.36 469.64 455.39 469.63
  Q 462.06 468.67 467.82 470.18
  Q 486.15 474.99 493.12 492.70
  Z"
/>
<path fill="#b3713d" d="
  M 457.77 470.78
  Q 462.85 474.29 468.24 476.04
  Q 473.22 477.65 476.24 479.05
  Q 486.16 483.65 493.12 492.70
  Q 497.25 500.50 497.48 506.99
  Q 497.94 519.72 497.44 533.75
  Q 497.30 537.80 493.05 538.20
  Q 492.97 538.20 492.88 538.20
  Q 488.63 538.11 488.47 534.15
  Q 488.14 526.16 488.15 516.49
  C 488.16 504.25 484.82 491.44 472.74 485.53
  C 469.65 484.02 466.33 483.20 463.65 480.96
  Q 459.20 477.23 456.14 472.33
  A 0.72 0.72 0.0 0 1 456.84 471.24
  Q 457.65 471.35 457.77 470.78
  Z"
/>
<path fill="#b3713d" d="
  M 336.27 471.18
  L 336.53 472.13
  Q 336.68 472.67 336.33 473.11
  C 333.25 477.02 329.61 481.64 324.77 483.41
  Q 313.05 487.68 308.06 500.07
  Q 305.12 507.38 304.79 513.67
  Q 304.36 522.03 304.59 532.83
  Q 304.64 535.04 303.86 536.67
  C 302.92 538.63 300.18 539.84 298.16 538.50
  Q 295.38 536.66 295.43 532.99
  Q 295.56 522.25 295.69 511.50
  Q 295.72 509.02 295.89 506.51
  Q 298.60 508.49 301.06 508.00
  A 1.58 1.55 -87.1 0 0 302.26 506.90
  C 303.69 501.89 304.82 496.81 307.33 492.21
  Q 311.45 484.68 318.56 480.03
  Q 320.19 478.96 327.49 475.79
  Q 332.05 473.80 336.27 471.18
  Z"
/>
<path fill="#fafbf4" d="
  M 426.10 500.09
  Q 427.32 502.06 426.22 504.91
  Q 426.04 505.39 425.57 505.60
  L 418.39 508.83
  C 420.80 506.45 424.95 503.02 426.10 500.09
  Z"
/>
<path fill="#02261a" d="
  M 594.68 532.21
  C 594.95 534.17 597.22 534.92 598.72 535.77
  Q 607.53 540.83 616.27 545.40
  C 619.60 547.13 627.02 550.72 622.73 555.79
  C 620.77 558.10 618.54 559.19 615.67 557.58
  Q 602.41 550.12 590.76 543.92
  Q 588.88 542.92 586.62 543.42
  A 1.07 1.06 -87.0 0 0 585.84 544.13
  C 584.75 547.33 583.19 550.60 579.28 550.59
  C 576.83 550.58 573.67 547.22 573.86 544.76
  Q 573.94 543.72 574.47 542.78
  C 581.90 529.62 588.70 517.19 595.15 503.96
  C 597.12 499.92 605.15 500.69 606.18 505.05
  C 606.81 507.69 604.42 508.80 604.25 511.27
  Q 604.10 513.57 606.22 514.71
  Q 619.89 522.12 631.86 528.81
  C 635.99 531.13 635.43 535.63 631.67 538.01
  Q 629.00 539.70 626.12 538.03
  Q 613.04 530.43 601.43 524.57
  C 599.94 523.82 598.06 524.20 597.17 525.69
  C 596.02 527.62 594.36 529.83 594.68 532.21
  Z"
/>
<path fill="#fafbf4" d="
  M 329.05 505.66
  Q 329.19 509.01 326.30 513.78
  Q 324.21 517.23 321.84 518.81
  Q 317.92 521.41 313.23 522.81
  C 316.14 515.26 323.18 510.02 329.05 505.66
  Z"
/>
<path fill="#02261a" d="
  M 177.86 533.84
  Q 174.77 533.07 172.60 534.52
  Q 169.32 536.70 165.31 538.90
  C 163.16 540.08 160.74 539.00 159.50 537.16
  Q 155.38 531.00 162.86 526.99
  Q 177.35 519.24 191.51 510.89
  C 195.76 508.39 201.19 507.60 203.69 512.61
  Q 208.05 521.33 211.70 529.08
  C 215.70 537.56 209.99 546.47 201.78 549.28
  C 196.38 551.14 194.61 548.11 189.72 547.62
  Q 187.91 547.44 187.49 549.21
  Q 186.47 553.40 185.94 557.94
  Q 185.35 562.94 180.67 564.06
  A 1.64 1.62 50.1 0 1 179.62 563.96
  C 171.92 560.46 175.43 548.88 178.19 543.04
  Q 180.16 538.89 178.40 534.32
  Q 178.26 533.94 177.86 533.84
  Z
  M 198.2771 525.0042
  A 4.47 4.47 0.0 0 0 192.1974 523.2723
  L 189.1742 524.9551
  A 4.47 4.47 0.0 0 0 187.4424 531.0347
  L 190.9829 537.3958
  A 4.47 4.47 0.0 0 0 197.0626 539.1277
  L 200.0858 537.4449
  A 4.47 4.47 0.0 0 0 201.8176 531.3653
  L 198.2771 525.0042
  Z"
/>
<path fill="#b3713d" d="
  M 340.94 547.74
  C 340.20 550.08 339.14 553.69 337.10 555.16
  C 334.00 557.41 331.38 553.59 332.08 550.62
  Q 333.32 545.27 334.89 539.69
  Q 335.63 537.07 337.09 534.58
  Q 337.78 533.40 338.93 534.16
  Q 346.94 539.48 353.68 547.01
  C 358.83 552.77 360.17 558.77 359.96 566.41
  C 359.90 568.75 358.41 571.03 355.91 571.09
  C 351.62 571.19 351.15 566.51 350.96 563.30
  C 350.60 557.06 346.33 551.43 341.66 547.54
  A 0.45 0.45 0.0 0 0 340.94 547.74
  Z"
/>
<path fill="#b3713d" d="
  M 452.54 547.55
  A 0.41 0.40 -26.8 0 0 451.92 547.35
  C 447.18 550.79 442.77 556.53 442.11 562.50
  C 441.79 565.41 441.26 572.30 436.50 571.25
  Q 433.68 570.63 433.32 567.39
  Q 431.85 553.99 441.58 544.39
  Q 446.90 539.14 453.19 535.02
  C 456.87 532.60 458.53 537.75 459.14 540.30
  Q 460.31 545.21 461.67 550.18
  Q 462.53 553.35 459.73 555.06
  Q 459.60 555.14 459.48 555.22
  Q 456.72 557.11 455.16 553.95
  Q 453.61 550.81 452.54 547.55
  Z"
/>
<path fill="#02261a" d="
  M 245.13 584.02
  A 24.17 24.17 0.0 0 1 220.96 608.19
  A 24.17 24.17 0.0 0 1 196.79 584.02
  A 24.17 24.17 0.0 0 1 220.96 559.85
  A 24.17 24.17 0.0 0 1 245.13 584.02
  Z
  M 232.7674 581.2874
  A 10.79 10.79 0.0 0 0 220.4537 572.2751
  L 217.9436 572.6637
  A 10.79 10.79 0.0 0 0 208.9313 584.9774
  L 209.2526 587.0526
  A 10.79 10.79 0.0 0 0 221.5663 596.0649
  L 224.0764 595.6763
  A 10.79 10.79 0.0 0 0 233.0887 583.3626
  L 232.7674 581.2874
  Z"
/>
<path fill="#02261a" d="
  M 597.13 584.08
  A 24.17 24.17 0.0 0 1 572.96 608.25
  A 24.17 24.17 0.0 0 1 548.79 584.08
  A 24.17 24.17 0.0 0 1 572.96 559.91
  A 24.17 24.17 0.0 0 1 597.13 584.08
  Z
  M 585.28 584.08
  A 12.18 12.18 0.0 0 0 573.10 571.90
  A 12.18 12.18 0.0 0 0 560.92 584.08
  A 12.18 12.18 0.0 0 0 573.10 596.26
  A 12.18 12.18 0.0 0 0 585.28 584.08
  Z"
/>
<path fill="#02261a" d="
  M 551.86 622.32
  A 24.03 24.03 0.0 0 1 527.83 646.35
  A 24.03 24.03 0.0 0 1 503.80 622.32
  A 24.03 24.03 0.0 0 1 527.83 598.29
  A 24.03 24.03 0.0 0 1 551.86 622.32
  Z
  M 539.4708 625.9343
  A 12.22 11.99 17.4 0 0 531.3955 610.8387
  A 12.22 11.99 17.4 0 0 516.1492 618.6257
  A 12.22 11.99 17.4 0 0 524.2245 633.7213
  A 12.22 11.99 17.4 0 0 539.4708 625.9343
  Z"
/>
<path fill="#02261a" d="
  M 291.02 622.36
  A 24.03 24.03 0.0 0 1 266.99 646.39
  A 24.03 24.03 0.0 0 1 242.96 622.36
  A 24.03 24.03 0.0 0 1 266.99 598.33
  A 24.03 24.03 0.0 0 1 291.02 622.36
  Z
  M 278.5488 618.9928
  A 10.75 10.75 0.0 0 0 265.9156 610.5355
  L 263.6005 610.9939
  A 10.75 10.75 0.0 0 0 255.1433 623.6272
  L 255.5512 625.6872
  A 10.75 10.75 0.0 0 0 268.1844 634.1445
  L 270.4995 633.6861
  A 10.75 10.75 0.0 0 0 278.9567 621.0528
  L 278.5488 618.9928
  Z"
/>
<path fill="#02261a" d="
  M 316.69 631.21
  C 311.79 629.31 300.84 628.28 306.43 619.58
  Q 307.62 617.73 309.49 618.05
  Q 312.88 618.63 316.62 620.08
  Q 327.28 624.24 337.21 627.71
  C 339.50 628.51 343.51 630.12 344.18 632.57
  C 345.03 635.64 340.92 640.89 337.35 639.25
  Q 334.37 637.88 330.29 636.92
  Q 328.05 636.39 327.27 638.56
  Q 323.48 649.15 317.92 663.02
  Q 316.70 666.07 314.98 667.87
  C 311.89 671.07 307.66 668.09 306.62 664.79
  Q 306.05 662.96 307.00 660.52
  Q 312.71 645.94 317.87 634.04
  A 2.13 2.13 0.0 0 0 316.69 631.21
  Z"
/>
<path fill="#02261a" d="
  M 474.67 655.01
  Q 472.33 655.65 472.99 658.13
  C 473.74 660.91 476.38 666.56 474.30 669.03
  C 472.57 671.08 469.46 673.53 466.84 671.61
  Q 464.68 670.03 463.88 667.21
  Q 458.96 649.96 453.04 633.83
  C 452.10 631.25 453.18 628.35 455.78 627.40
  Q 461.00 625.50 472.20 622.50
  C 481.62 619.98 489.83 622.69 492.87 632.67
  Q 494.78 638.97 491.27 644.33
  Q 489.07 647.68 492.16 650.25
  Q 495.61 653.12 499.58 655.74
  C 503.80 658.52 500.00 662.97 497.03 664.39
  C 494.87 665.43 492.92 663.94 491.24 662.75
  Q 486.33 659.25 481.95 654.92
  A 2.23 2.22 -21.4 0 0 480.45 654.27
  Q 477.73 654.19 474.67 655.01
  Z
  M 466.30 638.44
  L 468.24 644.52
  A 2.73 2.73 0.0 0 0 471.67 646.29
  L 476.56 644.73
  A 7.88 5.18 -17.7 0 0 482.49 637.40
  L 482.04 635.99
  A 7.88 5.18 -17.7 0 0 472.96 633.45
  L 468.07 635.01
  A 2.73 2.73 0.0 0 0 466.30 638.44
  Z"
/>
<path fill="#02261a" d="
  M 368.25 644.25
  Q 365.75 644.23 363.14 644.28
  C 357.73 644.37 356.87 636.88 362.46 637.05
  Q 373.24 637.38 382.86 637.01
  Q 385.54 636.91 387.63 638.61
  Q 388.06 638.96 388.07 639.51
  C 388.11 641.85 386.29 644.64 383.59 644.39
  Q 381.83 644.22 379.90 644.21
  Q 377.37 644.19 377.38 646.73
  Q 377.42 657.55 377.39 667.01
  Q 377.38 669.60 375.12 671.22
  C 371.11 674.10 369.02 668.97 369.09 665.83
  Q 369.28 655.90 369.25 645.25
  A 1.01 1.00 89.7 0 0 368.25 644.25
  Z"
/>
<path fill="#02261a" d="
  M 427.1921 656.8980
  A 17.98 17.78 7.6 0 1 407.0185 672.1438
  A 17.98 17.78 7.6 0 1 391.5479 652.1420
  A 17.98 17.78 7.6 0 1 411.7215 636.8962
  A 17.98 17.78 7.6 0 1 427.1921 656.8980
  Z
  M 418.9686 652.1647
  A 9.06 9.06 0.0 0 0 408.6424 644.5794
  L 406.7445 644.8698
  A 9.06 9.06 0.0 0 0 399.1592 655.1960
  L 399.4314 656.9753
  A 9.06 9.06 0.0 0 0 409.7576 664.5606
  L 411.6555 664.2702
  A 9.06 9.06 0.0 0 0 419.2408 653.9440
  L 418.9686 652.1647
  Z"
/>
</svg>
